<?xml version="1.0" standalone="no"?>
<!DOCTYPE svg PUBLIC "-//W3C//DTD SVG 1.1//EN" "http://www.w3.org/Graphics/SVG/1.1/DTD/svg11.dtd" >
<svg xmlns="http://www.w3.org/2000/svg">
<metadata>Generated by IcoMoon</metadata>
<defs>
<font id="icomoon" horiz-adv-x="1024">
<font-face units-per-em="1024" ascent="960" descent="-64" />
<missing-glyph horiz-adv-x="1024" />
<glyph unicode="&#x20;" horiz-adv-x="512" d="" />
<glyph unicode="&#xe900;" glyph-name="arrow2-down" d="M857.6 608l-320-320-320 316.8 640 3.2z" />
<glyph unicode="&#xe901;" glyph-name="arrow2-rihgt" d="M377.6 768l320-320-316.8-320-3.2 640z" />
<glyph unicode="&#xe902;" glyph-name="arrow3-down" d="M579.2 857.6c0 28.8-22.4 54.4-54.4 54.4-28.8 0-54.4-22.4-54.4-54.4 0-28.8 22.4-54.4 54.4-54.4 32 3.2 54.4 25.6 54.4 54.4zM579.2 649.6c0 28.8-22.4 54.4-54.4 54.4-28.8 0-54.4-22.4-54.4-54.4 0-28.8 22.4-54.4 54.4-54.4s54.4 25.6 54.4 54.4zM579.2 441.6c0 28.8-22.4 54.4-54.4 54.4-28.8 0-54.4-22.4-54.4-54.4 0-28.8 22.4-54.4 54.4-54.4s54.4 25.6 54.4 54.4zM867.2 406.4c-19.2 19.2-51.2 25.6-64 9.6l-284.8-284.8-281.6 284.8c-16 16-44.8 9.6-64-9.6s-25.6-51.2-9.6-64l329.6-329.6c6.4-6.4 16-9.6 28.8-9.6 9.6 0 22.4 0 28.8 9.6l329.6 329.6c12.8 12.8 9.6 41.6-12.8 64z" />
<glyph unicode="&#xe903;" glyph-name="arrow3-up" d="M528 108.8c-28.8 0-54.4-22.4-54.4-54.4 0-28.8 22.4-54.4 54.4-54.4 28.8 0 54.4 22.4 54.4 54.4-3.2 28.8-25.6 54.4-54.4 54.4zM528 316.8c-28.8 0-54.4-22.4-54.4-54.4 0-28.8 22.4-54.4 54.4-54.4 28.8 0 54.4 22.4 54.4 54.4-3.2 32-25.6 54.4-54.4 54.4zM528 528c-28.8 0-54.4-22.4-54.4-54.4 0-28.8 22.4-54.4 54.4-54.4 28.8 0 54.4 22.4 54.4 54.4-3.2 28.8-25.6 54.4-54.4 54.4zM876.8 572.8l-329.6 329.6c-6.4 6.4-16 9.6-28.8 9.6-9.6 0-22.4 0-28.8-9.6l-329.6-329.6c-16-16-9.6-44.8 9.6-64s51.2-25.6 64-9.6l284.8 284.8 284.8-284.8c16-16 44.8-9.6 64 9.6 22.4 19.2 25.6 48 9.6 64z" />
<glyph unicode="&#xe904;" glyph-name="arrow-left" d="M729.6 937.6c6.4 0 12.8-3.2 19.2-9.6 9.6-9.6 9.6-28.8 0-38.4l-435.2-435.2 464-464c9.6-9.6 9.6-28.8 0-38.4s-28.8-9.6-38.4 0l-502.4 502.4 473.6 476.8c6.4 6.4 12.8 6.4 19.2 6.4v0z" />
<glyph unicode="&#xe905;" glyph-name="circle" d="M518.4-51.2c-278.4 0-502.4 224-502.4 502.4s224 502.4 502.4 502.4 502.4-224 502.4-502.4-224-502.4-502.4-502.4zM518.4 921.6c-259.2 0-470.4-211.2-470.4-470.4s211.2-470.4 470.4-470.4c259.2 0 470.4 211.2 470.4 470.4s-211.2 470.4-470.4 470.4z" />
<glyph unicode="&#xe906;" glyph-name="circle-select" d="M512 940.8c-272 0-492.8-220.8-492.8-492.8s220.8-492.8 492.8-492.8c272 0 492.8 220.8 492.8 492.8s-220.8 492.8-492.8 492.8v0zM444.8 240l-185.6 185.6 48 48 140.8-140.8 268.8 268.8 48-48-320-313.6z" />
<glyph unicode="&#xe907;" glyph-name="close" d="M681.6 252.8c-6.4 0-12.8 3.2-19.2 6.4l-336 339.2c-9.6 9.6-9.6 25.6 0 35.2s25.6 9.6 35.2 0l339.2-339.2c9.6-9.6 9.6-25.6 0-35.2-6.4-3.2-12.8-6.4-19.2-6.4zM342.4 252.8c-6.4 0-12.8 3.2-19.2 6.4-9.6 9.6-9.6 25.6 0 35.2l339.2 339.2c9.6 9.6 25.6 9.6 35.2 0s9.6-25.6 0-35.2l-336-336c-6.4-6.4-12.8-9.6-19.2-9.6zM512-51.2c-275.2 0-499.2 224-499.2 499.2s224 499.2 499.2 499.2c275.2 0 499.2-224 499.2-499.2s-224-499.2-499.2-499.2v0zM512 896c-246.4 0-448-201.6-448-448s201.6-448 448-448c246.4 0 448 201.6 448 448s-201.6 448-448 448z" />
<glyph unicode="&#xe908;" d="M723.2 32c-9.6 0-16 3.2-25.6 6.4l-172.8 86.4-172.8-86.4c-25.6-12.8-57.6-3.2-73.6 22.4-6.4 9.6-6.4 22.4-6.4 32l35.2 185.6-137.6 128c-16 16-19.2 35.2-12.8 54.4s22.4 35.2 41.6 38.4l188.8 35.2 92.8 169.6c12.8 25.6 44.8 38.4 70.4 25.6 12.8-3.2 19.2-12.8 25.6-25.6l83.2-172.8 188.8-32c19.2-3.2 35.2-16 41.6-38.4 6.4-19.2 0-41.6-12.8-54.4l-137.6-128 35.2-185.6c6.4-28.8-12.8-57.6-44.8-64 0 3.2-3.2 3.2-6.4 3.2v0z" />
<glyph unicode="&#xe909;" d="M755.2 22.4c-9.6 0-19.2 3.2-28.8 6.4l-204.8 102.4-204.8-102.4c-19.2-9.6-48-9.6-67.2 6.4-19.2 12.8-28.8 38.4-25.6 64l41.6 220.8-163.2 150.4c-19.2 16-25.6 44.8-16 67.2 6.4 22.4 25.6 41.6 51.2 44.8l224 41.6 102.4 204.8c9.6 22.4 32 35.2 57.6 35.2s48-12.8 57.6-35.2l102.4-204.8 227.2-41.6c22.4-3.2 44.8-19.2 51.2-44.8 6.4-22.4 0-48-16-67.2l-166.4-150.4 41.6-220.8c3.2-25.6-6.4-48-25.6-64-9.6-6.4-25.6-12.8-38.4-12.8v0zM521.6 182.4l224-112c6.4-3.2 16-3.2 19.2 0 6.4 3.2 9.6 12.8 6.4 19.2l-44.8 243.2 179.2 169.6c3.2 3.2 6.4 12.8 3.2 19.2s-9.6 12.8-16 12.8l-249.6 44.8-112 227.2c-6.4 12.8-28.8 12.8-35.2 0l-112-224-246.4-44.8c-6.4 0-12.8-6.4-16-12.8s0-16 3.2-19.2l179.2-169.6-48-246.4c0-6.4 3.2-12.8 6.4-19.2 6.4-3.2 12.8-6.4 19.2-3.2l240 115.2z" />
<glyph unicode="&#xe90a;" d="M723.2 32c-9.6 0-16 3.2-25.6 6.4l-172.8 86.4-172.8-86.4c-25.6-12.8-57.6-3.2-73.6 22.4-6.4 9.6-6.4 22.4-6.4 32l35.2 185.6-137.6 128c-16 16-19.2 35.2-12.8 54.4s22.4 35.2 41.6 38.4l188.8 35.2 92.8 169.6c12.8 25.6 44.8 38.4 70.4 25.6 12.8-3.2 19.2-12.8 25.6-25.6l83.2-172.8 188.8-32c19.2-3.2 35.2-16 41.6-38.4 6.4-19.2 0-41.6-12.8-54.4l-137.6-128 35.2-185.6c6.4-28.8-12.8-57.6-44.8-64 0 3.2-3.2 3.2-6.4 3.2v0z" />
<glyph unicode="&#xe90b;" d="M755.2 22.4c-9.6 0-19.2 3.2-28.8 6.4l-204.8 102.4-204.8-102.4c-19.2-9.6-48-9.6-67.2 6.4-19.2 12.8-28.8 38.4-25.6 64l41.6 220.8-163.2 150.4c-19.2 16-25.6 44.8-16 67.2 6.4 22.4 25.6 41.6 51.2 44.8l224 41.6 102.4 204.8c9.6 22.4 32 35.2 57.6 35.2s48-12.8 57.6-35.2l102.4-204.8 227.2-41.6c22.4-3.2 44.8-19.2 51.2-44.8 6.4-22.4 0-48-16-67.2l-166.4-150.4 41.6-220.8c3.2-25.6-6.4-48-25.6-64-9.6-6.4-25.6-12.8-38.4-12.8v0zM521.6 182.4l224-112c6.4-3.2 16-3.2 19.2 0 6.4 3.2 9.6 12.8 6.4 19.2l-44.8 243.2 179.2 169.6c3.2 3.2 6.4 12.8 3.2 19.2s-9.6 12.8-16 12.8l-249.6 44.8-112 227.2c-6.4 12.8-28.8 12.8-35.2 0l-112-224-246.4-44.8c-6.4 0-12.8-6.4-16-12.8s0-16 3.2-19.2l179.2-169.6-48-246.4c0-6.4 3.2-12.8 6.4-19.2 6.4-3.2 12.8-6.4 19.2-3.2l240 115.2z" />
<glyph unicode="&#xe90c;" d="M800 451.2h-38.4v73.6c0 12.8-9.6 12.8-16 12.8h-192l-35.2 70.4c-3.2 6.4-9.6 12.8-19.2 12.8h-211.2c-22.4 0-41.6-19.2-41.6-48v-400c0-22.4 19.2-44.8 41.6-44.8h505.6c22.4 0 38.4 22.4 38.4 44.8v252.8c-3.2 9.6-9.6 25.6-32 25.6zM736 515.2v-64h-140.8l-35.2 64h176zM582.4 425.6h224v-262.4c0 0-3.2-12.8-9.6-12.8h-505.6c0 0-16 6.4-19.2 19.2 0 0 0 374.4 0 400s19.2 22.4 19.2 25.6h198.4z" />
<glyph unicode="&#xe90d;" d="M560 518.4h182.4v-70.4l-147.2-3.2z" />
<glyph unicode="&#xe90e;" d="M572.8 284.8c3.2-9.6 3.2-16 3.2-22.4 0-3.2 0-6.4 3.2-9.6 0-3.2 0-6.4 0-6.4 0-3.2 0-3.2 0-6.4s0-3.2 0-3.2c0-3.2 0-3.2 0-3.2s-3.2 0-3.2 0c0 0 0 0-3.2 0 0 0-3.2 0-3.2 0l-38.4 22.4c-6.4-3.2-12.8-9.6-19.2-12.8-3.2 0-6.4-3.2-6.4-3.2-3.2 0-6.4-3.2-6.4-3.2-3.2 0-3.2-3.2-6.4-3.2s-3.2 0-3.2 0-3.2 0-3.2 0c0 0-3.2 0-3.2 0s0 0-3.2 3.2c0 0 0 3.2 0 3.2s0 0 0 3.2 0 3.2 0 6.4 0 3.2 3.2 6.4c0 3.2 0 6.4 3.2 9.6 0 6.4 3.2 12.8 6.4 22.4-6.4 6.4-12.8 9.6-16 16-3.2 3.2-3.2 3.2-6.4 6.4s-3.2 3.2-6.4 3.2-3.2 3.2-3.2 3.2-3.2 0-3.2 0c0 0-3.2 3.2-3.2 3.2s0 3.2 0 3.2c0 0 0 3.2 3.2 3.2s3.2 0 3.2 0l48 3.2 19.2 41.6c0 3.2 0 3.2 3.2 3.2 0 0 3.2 3.2 3.2 3.2s3.2 0 3.2 0c0 0 0 0 3.2-3.2s0 0 0-3.2c0 0 0 0 0 0l19.2-41.6 48-3.2c3.2 0 3.2 0 3.2-3.2s0-3.2 0-3.2 0-3.2 0-3.2c0 0-3.2-3.2-3.2-3.2l-35.2-28.8z" />
<glyph unicode="&#xe90f;" d="M124.8 764.8l-51.2-16c-6.4 0-9.6-9.6-9.6-16l32-99.2c3.2-6.4 9.6-9.6 16-9.6l76.8 22.4c6.4 3.2 9.6 9.6 9.6 16l-22.4 76.8-51.2 25.6zM166.4 668.8l-48-16-6.4 12.8 51.2 16 3.2-12.8zM160 691.2l-51.2-12.8-3.2 12.8 51.2 12.8 3.2-12.8zM131.2 720l-9.6 32 44.8-25.6-35.2-6.4z" />
<glyph unicode="&#xe910;" d="M822.4 774.4l-44.8 12.8c-6.4 0-12.8-3.2-12.8-9.6l-22.4-89.6c0-6.4 3.2-12.8 9.6-12.8l67.2-16c6.4 0 12.8 3.2 12.8 9.6l16 67.2-25.6 38.4zM809.6 681.6l-44.8 12.8 3.2 9.6 44.8-12.8-3.2-9.6zM816 704l-44.8 12.8 3.2 12.8 44.8-12.8-3.2-12.8zM806.4 736l6.4 32 22.4-38.4-28.8 6.4z" />
<glyph unicode="&#xe911;" d="M966.4 457.6l-41.6 19.2c0 0-3.2 3.2 0 3.2 0 0 3.2 3.2 3.2 0l41.6-19.2c0 0 3.2-3.2 0-3.2 0 0-3.2 0-3.2 0zM976 476.8l-41.6 19.2c0 0-3.2 3.2 0 3.2 0 0 3.2 3.2 3.2 0l41.6-19.2c0 0 3.2-3.2 0-3.2s-3.2 0-3.2 0zM963.2 505.6l-22.4 9.6c0 0-3.2 3.2 0 3.2 0 0 3.2 3.2 3.2 0l22.4-9.6c0 0 3.2-3.2 0-3.2 0 0 0 0-3.2 0zM1011.2 483.2l-22.4 9.6c-6.4 3.2-9.6 9.6-6.4 16l9.6 22.4c0 0 3.2 3.2 3.2 0 0 0 3.2-3.2 0-3.2l-9.6-22.4c-3.2-3.2 0-6.4 3.2-9.6l22.4-9.6c0 0 3.2-3.2 0-3.2 3.2 0 0 0 0 0v0z" />
<glyph unicode="&#xe912;" d="M972.8 419.2l-67.2 32c-9.6 3.2-9.6 9.6-9.6 16l38.4 86.4c3.2 6.4 9.6 9.6 16 6.4l48-22.4c0 0 0 0 0 0l16-44.8c0 0 0 0 0-3.2l-28.8-64c0-6.4-9.6-9.6-12.8-6.4zM950.4 553.6c-3.2 3.2-6.4 0-9.6-3.2l-38.4-86.4c-3.2-3.2 0-6.4 3.2-9.6l67.2-32c3.2 0 9.6 0 9.6 3.2l28.8 64-16 41.6-44.8 22.4z" />
<glyph unicode="&#xe913;" d="M83.2 435.2l-48-12.8v-3.2l48 12.8v3.2zM6.4 457.6l28.8-105.6 80 22.4-28.8 105.6-80-22.4zM112 380.8l-70.4-19.2-25.6 96 70.4 19.2 25.6-96zM86.4 416l-48-12.8v-3.2l48 12.8v3.2zM76.8 454.4l-48-12.8v-3.2l48 12.8v3.2zM70.4 390.4l-25.6-6.4v-3.2l22.4 6.4 3.2 3.2z" />
<glyph unicode="&#xe914;" d="M467.2 892.8c-220.8 0-403.2-182.4-403.2-403.2 0-224 179.2-403.2 403.2-403.2s403.2 179.2 403.2 403.2c0 220.8-179.2 403.2-403.2 403.2zM374.4 713.6c-12.8-6.4-28.8-12.8-41.6-22.4-12.8-6.4-22.4-19.2-35.2-28.8-9.6-9.6-22.4-22.4-28.8-35.2s-16-28.8-22.4-41.6c-6.4-12.8-19.2-19.2-32-12.8s-19.2 19.2-12.8 32c6.4 16 16 35.2 25.6 51.2s22.4 28.8 35.2 44.8c12.8 12.8 28.8 25.6 44.8 35.2s32 19.2 51.2 25.6c12.8 6.4 28.8 0 32-12.8 3.2-16-3.2-28.8-16-35.2zM739.2 377.6v0c-16-35.2-35.2-67.2-64-96s-60.8-48-96-64c-35.2-16-73.6-22.4-112-22.4-12.8 0-25.6 12.8-25.6 25.6s12.8 25.6 25.6 25.6c32 0 64 6.4 92.8 19.2s54.4 28.8 80 51.2c22.4 22.4 41.6 51.2 51.2 76.8v0c12.8 28.8 19.2 60.8 19.2 92.8 0 12.8 9.6 25.6 25.6 25.6 12.8 0 25.6-9.6 25.6-25.6 0-35.2-6.4-73.6-22.4-108.8z" />
<glyph unicode="&#xe915;" d="M995.2 22.4l-179.2 179.2c28.8 35.2 51.2 73.6 70.4 115.2 22.4 54.4 35.2 112 35.2 172.8s-12.8 118.4-35.2 169.6v3.2c-22.4 57.6-54.4 105.6-96 147.2v3.2c-41.6 41.6-92.8 76.8-147.2 99.2s-112 35.2-172.8 35.2c-124.8 0-236.8-51.2-320-134.4-44.8-44.8-76.8-92.8-99.2-150.4-22.4-54.4-35.2-112-35.2-172.8s12.8-118.4 32-169.6v-3.2c22.4-54.4 57.6-105.6 99.2-147.2v0c44.8-38.4 92.8-73.6 147.2-96s112-35.2 172.8-35.2c60.8 0 118.4 12.8 172.8 35.2 41.6 16 80 41.6 115.2 70.4l179.2-179.2c16-16 41.6-16 57.6 0 19.2 16 19.2 41.6 3.2 57.6v0zM748.8 211.2v0c-38.4-38.4-80-67.2-128-86.4s-99.2-28.8-150.4-28.8c-54.4 0-105.6 9.6-150.4 28.8-48 19.2-92.8 51.2-128 86.4v0c-35.2 38.4-67.2 80-86.4 128v3.2c-19.2 44.8-28.8 96-28.8 150.4s9.6 105.6 28.8 150.4c19.2 48 51.2 92.8 86.4 128 70.4 70.4 169.6 115.2 281.6 115.2 54.4 0 105.6-9.6 150.4-28.8 48-19.2 92.8-51.2 128-86.4v-3.2c35.2-35.2 64-80 83.2-124.8v-3.2c19.2-48 28.8-96 28.8-150.4s-9.6-105.6-28.8-150.4c-22.4-48-51.2-89.6-86.4-128v0z" />
<glyph unicode="&#xe916;" d="M198.4 668.8c6.4 121.6 105.6 220.8 227.2 217.6 121.6 3.2 224-96 227.2-217.6 0-83.2-44.8-160-115.2-198.4v70.4c35.2 32 57.6 80 57.6 128 0 92.8-76.8 163.2-166.4 163.2-92.8 0-169.6-70.4-172.8-163.2-3.2-48 19.2-96 57.6-128v-70.4c-70.4 41.6-115.2 118.4-115.2 198.4zM342.4 620.8c0 44.8 41.6 83.2 86.4 83.2s83.2-35.2 83.2-83.2v-160c0-3.2 3.2-6.4 6.4-6.4l259.2-57.6c44.8-9.6 76.8-51.2 80-96v-188.8c0-80-64-144-144-144v0h-227.2c-44.8 3.2-86.4 22.4-115.2 57.6l-160 182.4c-25.6 32-22.4 83.2 6.4 115.2l6.4 3.2c32 32 83.2 32 112 0v0l9.6-9.6v304h-3.2z" />
<glyph unicode="&#xe917;" d="M198.4 681.6c0 115.2 102.4 214.4 227.2 214.4s227.2-99.2 227.2-217.6c0-89.6-44.8-160-115.2-198.4v70.4c32 28.8 57.6 73.6 57.6 128-3.2 86.4-76.8 163.2-172.8 163.2-96-3.2-172.8-76.8-172.8-163.2 0-57.6 22.4-99.2 57.6-128v-70.4c-60.8 38.4-108.8 112-108.8 201.6zM342.4 630.4c0 48 38.4 86.4 83.2 86.4s86.4-35.2 86.4-83.2v-160c0-3.2 3.2-6.4 6.4-6.4l259.2-57.6c44.8-9.6 80-51.2 80-96v-192c0-80-64-144-144-144h-227.2c-41.6 0-89.6 22.4-115.2 57.6l-160 182.4c-22.4 32-19.2 83.2 9.6 115.2l3.2 3.2c32 32 83.2 32 112 0l9.6-9.6v304h-3.2zM486.4 32h227.2c48 0 83.2 38.4 83.2 83.2v188.8c0 19.2-16 38.4-32 41.6l-259.2 57.6c-28.8 6.4-51.2 32-51.2 60.8v160c0 16-12.8 28.8-28.8 28.8s-28.8-12.8-28.8-28.8v-451.2l-108.8 108.8c-9.6 9.6-22.4 6.4-32 0v0c-9.6-9.6-9.6-28.8-3.2-38.4l160-182.4c16-12.8 48-28.8 73.6-28.8z" />
<glyph unicode="&#xe918;" d="M220.8 704h576c19.2 0 32-12.8 32-32v-544c0-19.2-12.8-32-32-32h-576c-19.2 0-32 12.8-32 32v544c0 19.2 12.8 32 32 32z" />
<glyph unicode="&#xe919;" d="M569.6 105.6h-300.8c-38.4 0-67.2 32-67.2 67.2v544c0 38.4 32 67.2 67.2 67.2h489.6c38.4 0 67.2-32 67.2-67.2v-329.6c0-12.8 9.6-22.4 22.4-22.4s22.4 9.6 22.4 22.4v332.8c0 60.8-51.2 112-112 112h-489.6c-60.8 0-112-51.2-112-112v-544c0-60.8 51.2-112 112-112h300.8c12.8 0 22.4 9.6 22.4 22.4-3.2 12.8-9.6 19.2-22.4 19.2zM716.8 377.6c0 12.8-9.6 22.4-22.4 22.4h-364.8c-12.8 0-22.4-9.6-22.4-22.4s9.6-22.4 22.4-22.4h368c9.6 0 19.2 9.6 19.2 22.4v0zM329.6 256c-12.8 0-22.4-9.6-22.4-22.4s9.6-22.4 22.4-22.4h150.4c12.8 0 22.4 9.6 22.4 22.4s-9.6 22.4-22.4 22.4h-150.4zM697.6 540.8h-368c-12.8 0-22.4-9.6-22.4-22.4s9.6-22.4 22.4-22.4h368c12.8 0 22.4 9.6 22.4 22.4-3.2 12.8-12.8 22.4-22.4 22.4v0zM697.6 681.6h-368c-12.8 0-22.4-9.6-22.4-19.2 0-12.8 9.6-22.4 22.4-22.4h368c12.8 0 22.4 9.6 22.4 22.4-3.2 9.6-12.8 19.2-22.4 19.2v0zM918.4 291.2c-9.6 9.6-22.4 9.6-28.8 0l-172.8-172.8-102.4 102.4c-9.6 9.6-22.4 9.6-28.8 0-9.6-9.6-9.6-22.4 0-28.8l118.4-118.4c3.2-3.2 9.6-6.4 16-6.4s9.6 3.2 16 6.4l188.8 188.8c3.2 6.4 3.2 19.2-6.4 28.8v0z" />
<glyph unicode="&#xe91a;" d="M220.8 704h576c19.2 0 32-12.8 32-32v-544c0-19.2-12.8-32-32-32h-576c-19.2 0-32 12.8-32 32v544c0 19.2 12.8 32 32 32z" />
<glyph unicode="&#xe91b;" d="M569.6 105.6h-300.8c-38.4 0-67.2 32-67.2 67.2v544c0 38.4 32 67.2 67.2 67.2h489.6c38.4 0 67.2-32 67.2-67.2v-329.6c0-12.8 9.6-22.4 22.4-22.4s22.4 9.6 22.4 22.4v332.8c0 60.8-51.2 112-112 112h-489.6c-60.8 0-112-51.2-112-112v-544c0-60.8 51.2-112 112-112h300.8c12.8 0 22.4 9.6 22.4 22.4-3.2 12.8-9.6 19.2-22.4 19.2zM716.8 377.6c0 12.8-9.6 22.4-22.4 22.4h-364.8c-12.8 0-22.4-9.6-22.4-22.4s9.6-22.4 22.4-22.4h368c9.6 0 19.2 9.6 19.2 22.4v0zM329.6 256c-12.8 0-22.4-9.6-22.4-22.4s9.6-22.4 22.4-22.4h150.4c12.8 0 22.4 9.6 22.4 22.4s-9.6 22.4-22.4 22.4h-150.4zM697.6 540.8h-368c-12.8 0-22.4-9.6-22.4-22.4s9.6-22.4 22.4-22.4h368c12.8 0 22.4 9.6 22.4 22.4-3.2 12.8-12.8 22.4-22.4 22.4v0zM697.6 681.6h-368c-12.8 0-22.4-9.6-22.4-19.2 0-12.8 9.6-22.4 22.4-22.4h368c12.8 0 22.4 9.6 22.4 22.4-3.2 9.6-12.8 19.2-22.4 19.2v0zM918.4 291.2c-9.6 9.6-22.4 9.6-28.8 0l-172.8-172.8-102.4 102.4c-9.6 9.6-22.4 9.6-28.8 0-9.6-9.6-9.6-22.4 0-28.8l118.4-118.4c3.2-3.2 9.6-6.4 16-6.4s9.6 3.2 16 6.4l188.8 188.8c3.2 6.4 3.2 19.2-6.4 28.8v0z" />
<glyph unicode="&#xe91c;" glyph-name="search" d="M435.2 892.8c-201.6 0-368-163.2-368-364.8s166.4-368 368-368 364.8 166.4 364.8 368-163.2 364.8-364.8 364.8zM435.2 233.6c-163.2 0-291.2 131.2-291.2 291.2s131.2 291.2 291.2 291.2 291.2-131.2 291.2-291.2-131.2-291.2-291.2-291.2zM648.505 262.13l52.065 52.020 289.505-289.751-52.065-52.020-289.505 289.751z" />
<glyph unicode="&#xe91d;" d="M182.4 470.4l716.8 377.6-204.8-784-512 406.4z" />
<glyph unicode="&#xe91e;" d="M912 867.2c-3.2 3.2-9.6 6.4-16 3.2l-736-268.8c-25.6-9.6-41.6-32-48-57.6s3.2-54.4 25.6-70.4l188.8-156.8c0 0 0 0 0-3.2l-12.8-233.6c0-6.4 3.2-12.8 9.6-16 3.2 0 3.2 0 6.4 0s9.6 3.2 12.8 6.4l102.4 102.4c6.4 6.4 6.4 16 0 22.4s-16 6.4-22.4 0l-70.4-73.6 9.6 166.4 243.2-201.6c12.8-12.8 32-19.2 51.2-19.2 35.2 0 64 22.4 73.6 54.4l185.6 726.4c3.2 6.4 0 12.8-3.2 19.2zM348.8 342.4l-188.8 153.6c-12.8 9.6-16 25.6-12.8 41.6s12.8 28.8 25.6 32l659.2 243.2-483.2-470.4zM697.6 131.2c-6.4-22.4-25.6-32-41.6-32-6.4 0-19.2 3.2-28.8 12.8l-252.8 208 492.8 480-169.6-668.8z" />
<glyph unicode="&#xe91f;" d="M182.4 470.4l716.8 377.6-204.8-784-512 406.4z" />
<glyph unicode="&#xe920;" d="M912 867.2c-3.2 3.2-9.6 6.4-16 3.2l-736-268.8c-25.6-9.6-41.6-32-48-57.6s3.2-54.4 25.6-70.4l188.8-156.8c0 0 0 0 0-3.2l-12.8-233.6c0-6.4 3.2-12.8 9.6-16 3.2 0 3.2 0 6.4 0s9.6 3.2 12.8 6.4l102.4 102.4c6.4 6.4 6.4 16 0 22.4s-16 6.4-22.4 0l-70.4-73.6 9.6 166.4 243.2-201.6c12.8-12.8 32-19.2 51.2-19.2 35.2 0 64 22.4 73.6 54.4l185.6 726.4c3.2 6.4 0 12.8-3.2 19.2zM348.8 342.4l-188.8 153.6c-12.8 9.6-16 25.6-12.8 41.6s12.8 28.8 25.6 32l659.2 243.2-483.2-470.4zM697.6 131.2c-6.4-22.4-25.6-32-41.6-32-6.4 0-19.2 3.2-28.8 12.8l-252.8 208 492.8 480-169.6-668.8z" />
<glyph unicode="&#xe921;" glyph-name="success" d="M518.4 902.4c-259.2 0-470.4-211.2-470.4-470.4s211.2-470.4 470.4-470.4 470.4 211.2 470.4 470.4c0 48-6.4 96-22.4 140.8-3.2 9.6-12.8 16-25.6 12.8-9.6-3.2-16-12.8-12.8-25.6 12.8-41.6 19.2-86.4 19.2-128 0-236.8-192-432-432-432s-432 192-432 432 195.2 432 435.2 432c89.6 0 176-28.8 246.4-76.8 9.6-6.4 22.4-3.2 25.6 3.2 6.4 9.6 3.2 22.4-3.2 25.6-76.8 57.6-172.8 86.4-268.8 86.4zM963.2 761.6l-521.6-521.6-252.8 252.8c-6.4 6.4-19.2 6.4-25.6 0s-6.4-19.2 0-25.6l265.6-265.6c3.2-3.2 9.6-6.4 12.8-6.4s9.6 3.2 12.8 6.4l534.4 534.4c6.4 6.4 6.4 19.2 0 25.6s-19.2 6.4-25.6 0z" />
<glyph unicode="&#xe922;" d="M249.6 704h531.2c19.2 0 32-16 32-32v-531.2c0-19.2-16-32-32-32h-531.2c-19.2 0-32 16-32 32v531.2c0 16 16 32 32 32z" />
<glyph unicode="&#xe923;" d="M793.6 656c0 12.8 9.6 22.4 22.4 22.4s22.4-9.6 22.4-22.4v-524.8c0-38.4-32-67.2-67.2-67.2h-537.6c-38.4 0-67.2 32-67.2 67.2v627.2c0 38.4 32 67.2 67.2 67.2h428.8c12.8 0 22.4-9.6 22.4-22.4s-12.8-19.2-25.6-19.2h-425.6c-12.8 0-22.4-9.6-22.4-22.4v-627.2c0-12.8 9.6-22.4 22.4-22.4h537.6c12.8 0 22.4 9.6 22.4 22.4v521.6zM345.6 579.2c-12.8 0-22.4 12.8-22.4 22.4s9.6 22.4 22.4 22.4h134.4c12.8 0 22.4-9.6 22.4-22.4s-9.6-22.4-22.4-22.4h-134.4zM345.6 400c-12.8 0-22.4 9.6-22.4 22.4s9.6 22.4 22.4 22.4h316.8c12.8 0 22.4-9.6 22.4-22.4s-9.6-22.4-22.4-22.4h-316.8zM630.4 569.6c-6.4-9.6-22.4-9.6-32-3.2s-9.6 22.4-3.2 32l220.8 243.2c6.4 9.6 22.4 9.6 32 3.2s9.6-22.4 3.2-32l-220.8-243.2z" />
<glyph unicode="&#xe924;" d="M249.6 704h531.2c19.2 0 32-16 32-32v-531.2c0-19.2-16-32-32-32h-531.2c-19.2 0-32 16-32 32v531.2c0 16 16 32 32 32z" />
<glyph unicode="&#xe925;" d="M793.6 656c0 12.8 9.6 22.4 22.4 22.4s22.4-9.6 22.4-22.4v-524.8c0-38.4-32-67.2-67.2-67.2h-537.6c-38.4 0-67.2 32-67.2 67.2v627.2c0 38.4 32 67.2 67.2 67.2h428.8c12.8 0 22.4-9.6 22.4-22.4s-12.8-19.2-25.6-19.2h-425.6c-12.8 0-22.4-9.6-22.4-22.4v-627.2c0-12.8 9.6-22.4 22.4-22.4h537.6c12.8 0 22.4 9.6 22.4 22.4v521.6zM345.6 579.2c-12.8 0-22.4 12.8-22.4 22.4s9.6 22.4 22.4 22.4h134.4c12.8 0 22.4-9.6 22.4-22.4s-9.6-22.4-22.4-22.4h-134.4zM345.6 400c-12.8 0-22.4 9.6-22.4 22.4s9.6 22.4 22.4 22.4h316.8c12.8 0 22.4-9.6 22.4-22.4s-9.6-22.4-22.4-22.4h-316.8zM630.4 569.6c-6.4-9.6-22.4-9.6-32-3.2s-9.6 22.4-3.2 32l220.8 243.2c6.4 9.6 22.4 9.6 32 3.2s9.6-22.4 3.2-32l-220.8-243.2z" />
<glyph unicode="&#xe926;" glyph-name="checkbox" d="M788.8 13.28h-521.632c-87.237 0.451-157.844 71.013-158.368 158.19v521.33c0.434 87.296 71.075 157.948 158.325 158.4h521.643c87.477 0 158.396-70.896 158.432-158.365v-521.315c-0.109-87.406-70.981-158.222-158.398-158.24h-0.002zM891.2 692.832c0 56.554-45.846 102.4-102.4 102.4v0h-521.632c-56.554 0-102.4-45.846-102.4-102.4v0-521.312c-0.136-1.872-0.213-4.057-0.213-6.259 0-50.899 41.261-92.16 92.16-92.16 0.66 0 1.318 0.007 1.975 0.021l-0.098-0.002h538.88c0.559-0.012 1.218-0.019 1.879-0.019 50.881 0 92.128 41.247 92.128 92.128 0 2.214-0.078 4.409-0.232 6.584l0.017-0.293v521.312z" />
<glyph unicode="&#xe927;" glyph-name="checkbox-active" d="M797.088 0h-538.208c-90.060 0.182-163.018 73.14-163.2 163.183v537.905c0.182 90.060 73.14 163.018 163.183 163.2h363.089c15.906 0 28.8-12.894 28.8-28.8s-12.894-28.8-28.8-28.8h-363.072c-58.277-0.109-105.491-47.323-105.6-105.59v-537.898c0.109-58.277 47.323-105.491 105.59-105.6h538.218c58.277 0.109 105.491 47.323 105.6 105.59v325.066c0 15.906 12.894 28.8 28.8 28.8s28.8-12.894 28.8-28.8v0-325.056c-0.146-90.074-73.126-163.055-163.186-163.2h-0.014zM499.68 263.84l-188.384 233.6c-3.809 4.837-6.109 11.018-6.109 17.735 0 15.906 12.894 28.8 28.8 28.8 8.862 0 16.789-4.003 22.072-10.299l0.036-0.045 148.032-183.456 382.272 383.232c5.22 5.236 12.44 8.475 20.416 8.475 15.921 0 28.827-12.906 28.827-28.827 0-7.945-3.214-15.138-8.412-20.353l-427.551-428.799z" />
<glyph unicode="&#xe928;" glyph-name="circle-select2" d="M400 284.8c-6.4 0-12.8 3.2-16 6.4l-153.6 153.6c-12.8 12.8-35.2 12.8-48 0s-12.8-35.2 0-48l182.4-185.6c9.6-6.4 19.2-9.6 32-9.6h9.6c12.8 0 22.4 3.2 32 9.6l371.2 371.2c12.8 12.8 12.8 35.2 0 48s-35.2 12.8-48 0l-342.4-339.2c-6.4-3.2-12.8-6.4-19.2-6.4v0 0zM32 320c9.6-35.2 22.4-70.4 38.4-105.6 6.4-12.8 19.2-19.2 32-19.2s25.6 9.6 28.8 22.4c0 9.6 0 22.4-6.4 28.8-48 96-57.6 208-28.8 310.4 60.8 233.6 300.8 374.4 534.4 313.6 185.6-48 316.8-211.2 326.4-403.2 3.2-80-12.8-160-48-230.4-92.8-179.2-294.4-272-489.6-224-44.8 9.6-89.6 28.8-128 54.4-6.4 3.2-12.8 6.4-22.4 6.4-12.8 0-25.6-12.8-28.8-25.6s3.2-25.6 16-35.2c67.2-41.6 140.8-67.2 220.8-76.8 48-3.2 99.2 0 147.2 9.6 268.8 57.6 441.6 323.2 390.4 592-57.6 278.4-316.8 457.6-588.8 406.4s-451.2-316.8-400-592c3.2-9.6 6.4-22.4 6.4-32z" />
<glyph unicode="&#xe929;" glyph-name="right" d="M387.488 128.16c-9.909 0.022-18.876 4.040-25.377 10.529l-319.679 319.711c-6.146 6.423-9.929 15.15-9.929 24.761 0 19.794 16.046 35.84 35.84 35.84 9.603 0 18.324-3.777 24.758-9.926l-0.014 0.013 294.4-294.4 575.264 575.712c6.537 6.832 15.728 11.079 25.911 11.079 19.794 0 35.84-16.046 35.84-35.84 0-10.191-4.253-19.388-11.082-25.914l-0.014-0.013-600.608-601.12c-6.426-6.445-15.313-10.432-25.132-10.432-0.052 0-0.104 0-0.156 0h0.008z" />
<glyph unicode="&#xe92a;" glyph-name="click" d="M843.392 499.968h-325.856v241.664c0.010 0.475 0.016 1.034 0.016 1.595 0 43.9-35.588 79.488-79.488 79.488s-79.488-35.588-79.488-79.488c0-0.561 0.006-1.12 0.017-1.678l-0.001 0.083v-355.872c-18.3 13.407-39.312 24.763-61.806 33.058l-1.778 0.574c-21.575 8.47-46.56 13.379-72.69 13.379-0.387 0-0.774-0.001-1.161-0.003h0.059c-3.044 0.302-6.579 0.475-10.154 0.475-29.094 0-55.52-11.419-75.042-30.020l0.044 0.042c-27.008-35.2-29.952-90.944 13.312-112v0c3.712 0 150.816-1.28 201.344-202.432 0.864-3.392 2.144-7.808 3.616-12.8l56.544-140.032h429.216l66.88 228.288v271.232c0.001 0.133 0.002 0.291 0.002 0.449 0 35.201-28.418 63.764-63.563 63.999h-0.022zM876.16 168.864l-59.040-201.6h-385.536l-48 119.392c-1.28 4.224-2.24 7.52-2.816 9.792-11.564 48.587-31.463 91.272-58.306 128.632l0.738-1.080c-20.274 27.702-45.323 50.598-74.126 67.879l-1.138 0.633c-25.712 15.519-56.125 26.042-88.66 29.425l-0.94 0.079c-5.21 3.701-8.92 9.219-10.213 15.614l-0.027 0.162c-0.447 2.741-0.703 5.901-0.703 9.12 0 14.076 4.884 27.012 13.050 37.205l-0.091-0.118c14.054 11.22 32.079 18.004 51.689 18.004 3.21 0 6.377-0.182 9.492-0.536l-0.381 0.035c0.326 0.002 0.712 0.003 1.099 0.003 22.038 0 43.12-4.098 62.523-11.575l-1.19 0.403 4-1.536c20.194-7.533 37.664-17.075 53.5-28.711l-0.604 0.423c4.989-3.703 11.269-5.929 18.068-5.929 5.087 0 9.883 1.246 14.1 3.449l-0.168-0.080c10.081 5.334 16.832 15.755 16.832 27.753 0 0.031 0 0.061 0 0.092v-0.005 355.84c-0.010 0.372-0.016 0.809-0.016 1.248 0 26.881 21.791 48.672 48.672 48.672s48.672-21.791 48.672-48.672c0-0.439-0.006-0.876-0.017-1.312l0.001 0.064v-241.696c0-0.057-0.001-0.125-0.001-0.193 0-17.064 13.77-30.913 30.805-31.039h325.964c18.128-0.145 32.768-14.874 32.768-33.023 0-0.057 0-0.113 0-0.17v0.009-266.656zM293.952 579.552v41.248c-27.377 32.736-44.002 75.283-44.002 121.714 0 51.935 20.801 99.013 54.526 133.355l-0.028-0.028c33.441 34.078 79.982 55.2 131.456 55.2s98.015-21.122 131.428-55.171l0.028-0.029c33.661-34.321 54.437-81.386 54.437-133.303 0-42.576-13.972-81.889-37.582-113.603l0.36 0.506v-43.584c40.648 39.675 65.857 95.009 65.857 156.231 0 0.2 0 0.4-0.001 0.6v-0.031c0 118.472-96.040 214.512-214.512 214.512s-214.512-96.040-214.512-214.512v0c-0.001-0.188-0.001-0.41-0.001-0.632 0-64.437 27.931-122.351 72.346-162.295l0.199-0.176z" />
<glyph unicode="&#xe92b;" glyph-name="favorite2" d="M951.456 495.648c8.488 7.572 13.806 18.541 13.806 30.752 0 3.638-0.472 7.167-1.359 10.527l0.064-0.287c-5.744 14.236-18.695 24.454-34.21 26.191l-0.19 0.017-210.112 39.776c-22.607 5.877-41.346 19.618-53.549 38.061l-0.211 0.339-124.544 222.976c-2.857 4.986-8.146 8.29-14.208 8.29s-11.351-3.305-14.166-8.211l-0.042-0.080-124.8-222.784c-12.445-18.884-31.253-32.704-53.316-38.482l-0.636-0.142-210.432-39.744c-15.561-1.838-28.371-11.991-33.98-25.832l-0.1-0.28c-0.857-3.142-1.349-6.749-1.349-10.471 0-12.108 5.209-22.999 13.508-30.555l0.033-0.030 146.208-153.6c12.943-15.593 20.796-35.813 20.796-57.869 0-1.673-0.045-3.335-0.134-4.985l0.010 0.23-26.56-208.48c-0.521-2.504-0.818-5.382-0.818-8.329 0-10.375 3.693-19.887 9.836-27.294l-0.057 0.071c7.317-7.278 17.405-11.777 28.544-11.777 7.42 0 14.373 1.996 20.352 5.481l-0.193-0.104 193.824 89.376c9.915 3.745 21.376 5.914 33.344 5.914s23.429-2.168 34.013-6.133l-0.669 0.22 193.664-89.344c6.444-3.215 14.017-5.159 22.029-5.311l0.051-0.001c0.196-0.004 0.427-0.006 0.659-0.006 10.291 0 19.543 4.449 25.938 11.528l0.027 0.031c6.099 7.329 9.801 16.84 9.801 27.216 0 2.927-0.295 5.785-0.856 8.546l0.047-0.274-26.56 208.64c-0.098 1.565-0.154 3.394-0.154 5.236 0 21.905 7.897 41.965 20.999 57.489l-0.109-0.133 145.792 153.6zM782.048 364.16c-18.476-21.111-29.745-48.937-29.745-79.395 0-3.321 0.134-6.612 0.397-9.865l-0.028 0.428 26.592-208.64c0.282-1.060 0.445-2.276 0.445-3.531 0-2.418-0.603-4.695-1.666-6.69l0.037 0.077c-1.083-0.365-2.331-0.576-3.628-0.576-2.608 0-5.017 0.853-6.964 2.294l0.032-0.022-193.696 89.344c-13.918 5.826-30.092 9.211-47.056 9.211s-33.138-3.385-47.882-9.516l0.826 0.304-193.792-89.312c-6.816-3.2-9.6-2.944-10.528-1.696-1.025 1.907-1.627 4.172-1.627 6.578 0 1.291 0.173 2.541 0.498 3.729l-0.023-0.099 26.56 208.672c0.205 2.651 0.321 5.74 0.321 8.857 0 30.574-11.219 58.528-29.764 79.97l0.131-0.155-146.112 153.6c-2.755 2.169-4.62 5.362-5.019 8.997l-0.005 0.059c2.329 2.595 5.644 4.265 9.35 4.415l0.026 0.001 210.176 39.68c32.368 7.758 59.174 27.466 76.054 54.089l0.298 0.503 110.688 197.472 110.432-197.504c17.163-27.031 43.907-46.667 75.353-54.23l0.839-0.17 209.92-39.744c3.807-0.13 7.199-1.801 9.591-4.406l0.009-0.010c-0.444-3.715-2.324-6.922-5.060-9.099l-0.028-0.021z" />
<glyph unicode="&#xe92c;" glyph-name="favorite2-active" d="M951.456 495.648c8.488 7.572 13.806 18.541 13.806 30.752 0 3.638-0.472 7.167-1.359 10.527l0.064-0.287c-5.744 14.236-18.695 24.454-34.21 26.191l-0.19 0.017-210.112 39.776c-22.607 5.877-41.346 19.618-53.549 38.061l-0.211 0.339-124.544 222.976c-2.857 4.986-8.146 8.29-14.208 8.29s-11.351-3.305-14.166-8.211l-0.042-0.080-124.8-222.784c-12.445-18.884-31.253-32.704-53.316-38.482l-0.636-0.142-210.432-39.744c-15.561-1.838-28.371-11.991-33.98-25.832l-0.1-0.28c-0.857-3.142-1.349-6.749-1.349-10.471 0-12.108 5.209-22.999 13.508-30.555l0.033-0.030 146.208-153.6c12.943-15.593 20.796-35.813 20.796-57.869 0-1.673-0.045-3.335-0.134-4.985l0.010 0.23-26.56-208.48c-0.521-2.504-0.818-5.382-0.818-8.329 0-10.375 3.693-19.887 9.836-27.294l-0.057 0.071c7.317-7.278 17.405-11.777 28.544-11.777 7.42 0 14.373 1.996 20.352 5.481l-0.193-0.104 193.824 89.376c9.915 3.745 21.376 5.914 33.344 5.914s23.429-2.168 34.013-6.133l-0.669 0.22 193.664-89.344c6.444-3.215 14.017-5.159 22.029-5.311l0.051-0.001c0.196-0.004 0.427-0.006 0.659-0.006 10.291 0 19.543 4.449 25.938 11.528l0.027 0.031c6.099 7.329 9.801 16.84 9.801 27.216 0 2.927-0.295 5.785-0.856 8.546l0.047-0.274-26.56 208.64c-0.098 1.565-0.154 3.394-0.154 5.236 0 21.905 7.897 41.965 20.999 57.489l-0.109-0.133 145.792 153.6z" />
<glyph unicode="&#xe92d;" glyph-name="recall" d="M938.112 165.984c-96.512 87.168-243.264 128.416-436.064 128.416-0.057 0-0.125 0-0.192 0-22.71 0-41.12-18.41-41.12-41.12 0-0.056 0-0.113 0-0.169v0.009-119.264c0.001-0.089 0.001-0.193 0.001-0.298 0-28.277-22.923-51.2-51.2-51.2-14.038 0-26.756 5.649-36.005 14.799l0.005-0.004-316.8 293.568c-16.938 15.323-27.534 37.384-27.534 61.92s10.596 46.597 27.462 61.856l0.072 0.064 316.8 284.384c9.209 8.105 21.368 13.052 34.683 13.052 29.055 0 52.608-23.553 52.608-52.608 0-0.595-0.010-1.188-0.029-1.778l0.002 0.086v-91.744c1.171-23.32 18.545-42.251 41.035-45.82l0.277-0.036c238.218-28.893 433.725-186.026 517.2-399.33l1.488-4.318c18.368-41.28-45.888-82.56-82.624-50.464v0zM961.056 211.84c4.576-4.576 9.184 0 9.184 4.576-91.808 206.4-266.24 344-472.768 362.368-46.285 5.749-81.862 44.477-82.623 91.667l-0.001 0.077v91.776c-1.095 3.701-4.464 6.356-8.454 6.356-2.003 0-3.849-0.669-5.328-1.795l0.022 0.016-316.8-284.384c-8.462-7.218-13.794-17.89-13.794-29.808s5.331-22.59 13.739-29.763l0.055-0.045 316.8-293.568c1.457-1.111 3.304-1.78 5.306-1.78 3.989 0 7.359 2.654 8.438 6.294l0.016 0.062v119.264c1.641 47.478 39.719 85.545 87.048 87.164l0.152 0.004c197.376 4.576 358.016-45.856 459.008-128.448v0z" />
<glyph unicode="&#xe92e;" glyph-name="spread" d="M511.552 140.8c-0.726-0.003-1.586-0.005-2.445-0.005-81.2 0-158.367 17.27-228.028 48.336l3.562-1.419c-60.65 27.297-112.775 61.809-158.397 103.34l0.477-0.428c-48.074 42.595-88.852 91.994-121.18 146.96l-1.54 2.832-4 7.584 4.032 7.616c33.857 57.809 74.625 107.219 122.060 149.277l0.628 0.547c45.146 41.078 97.271 75.569 154.188 101.336l3.732 1.512c66.099 29.648 143.266 46.917 224.467 46.917 0.86 0 1.719-0.002 2.578-0.006h-0.132c77.611-0.271 151.118-17.554 217.077-48.311l-3.189 1.335c60.77-28.18 113.101-62.425 159.701-103.074l-0.789 0.674c50.934-43.373 95.161-92.317 132.443-146.416l1.637-2.512 5.568-8.896-5.6-8.768c-38.92-56.611-83.147-105.554-133.030-148.055l-1.050-0.873c-45.81-39.977-98.142-74.222-154.834-100.69l-4.078-1.71c-62.752-29.459-136.241-46.785-213.744-47.104h-0.112zM40.576 448c31.83-51.125 68.912-95.078 111.418-133.089l0.582-0.511c93.238-86.511 218.551-139.592 356.262-139.592 1 0 1.998 0.003 2.997 0.008l-0.154-0.001c134.434 4.188 255.869 56.61 348.295 140.438l-0.455-0.406c45.742 39.345 85.92 83.027 120.596 130.951l1.516 2.201c-36.227 50.125-76.446 93.808-121.243 132.315l-0.997 0.837c-91.971 83.422-213.406 135.844-347.003 140.011l-0.837 0.021c-0.854 0.005-1.865 0.008-2.877 0.008-137.694 0-262.994-53.068-356.562-139.866l0.334 0.307c-43.039-38.534-80.080-82.496-110.393-131.088l-1.479-2.544zM501.376 236.512c-0.493-0.004-1.075-0.006-1.658-0.006-63.149 0-120.567 24.54-163.237 64.604l0.127-0.118c-42.022 38.8-68.248 94.169-68.248 155.664s26.226 116.864 68.104 155.533l0.143 0.131c43.145 39.983 101.108 64.512 164.8 64.512s121.655-24.529 164.957-64.656l-0.157 0.144c42.022-38.8 68.248-94.169 68.248-155.664s-26.226-116.864-68.104-155.533l-0.143-0.131c-42.543-39.947-99.961-64.487-163.111-64.487-0.639 0-1.277 0.003-1.915 0.008l0.098-0.001zM501.376 642.912c-1.55 0.045-3.374 0.071-5.203 0.071-104.049 0-188.767-82.766-191.91-186.053l-0.007-0.289c3.22-103.519 87.909-186.212 191.913-186.212 1.797 0 3.589 0.025 5.374 0.074l-0.263-0.006c1.522-0.043 3.314-0.068 5.111-0.068 104.003 0 188.693 82.693 191.905 185.917l0.007 0.295c-3.22 103.519-87.909 186.212-191.913 186.212-1.797 0-3.589-0.025-5.374-0.074l0.263 0.006zM396.416 456.64h-36c2.306 74.013 62.857 133.135 137.217 133.135 1.26 0 2.516-0.017 3.767-0.051l-0.185 0.004v-33.984c-0.786 0.022-1.71 0.034-2.638 0.034-55.368 0-100.454-44.027-102.158-98.981l-0.004-0.157z" />
<glyph unicode="&#xe92f;" glyph-name="transmit" d="M669.344 520.832h-55.232c-0.203-0.002-0.444-0.003-0.685-0.003-39.773 0-72.501 30.158-76.567 68.853l-0.028 0.334v186.272c0 0.068 0 0.149 0 0.229 0 39.509 28.3 72.407 65.735 79.531l0.505 0.080h270.528c39.322-1.563 71.362-30.823 77.222-68.729l0.058-0.455v-186.304c-0.046-30.457-17.895-56.735-43.696-68.986l-0.464-0.198c-11.109-6.416-24.376-10.329-38.529-10.654l-0.095-0.002h-198.72zM619.616 819.712c-25.726-1.25-46.394-21.31-48.595-46.656l-0.013-0.192v-164c-0.008-0.336-0.013-0.731-0.013-1.128 0-27.254 21.537-49.478 48.521-50.581l0.1-0.003h249.056c24.069 2.115 42.807 22.177 42.807 46.615 0 1.796-0.101 3.568-0.298 5.311l0.020-0.214v165.024c-0.094 25.908-21.119 46.874-47.040 46.874-0.552 0-1.101-0.009-1.648-0.028l0.079 0.002zM288.448 39.904h-138.048c-22.072 1.001-41.612 11.066-55.122 26.533l-0.078 0.091c-13.718 14.099-22.177 33.375-22.177 54.627 0 1.372 0.035 2.736 0.105 4.091l-0.008-0.19v175.744c0 0.068 0 0.149 0 0.229 0 39.509 28.3 72.407 65.735 79.531l0.505 0.080h264.96c39.322-1.563 71.362-30.823 77.222-68.729l0.058-0.455v-186.272c0.015-0.59 0.024-1.285 0.024-1.983 0-43.914-33.943-79.899-77.024-83.152l-0.28-0.017h-115.872zM155.744 344.064c-0.448 0.015-0.975 0.024-1.505 0.024-25.969 0-47.036-20.986-47.167-46.923v-173.933c0.094-25.943 21.147-46.938 47.104-46.938 0.552 0 1.101 0.009 1.648 0.028l-0.079-0.002h243.2c2.25-0.421 4.838-0.662 7.482-0.662 23.523 0 42.592 19.069 42.592 42.592 0 3.853-0.512 7.587-1.471 11.137l0.069-0.298v162.72c0.576 2.677 0.907 5.753 0.907 8.906 0 24.407-19.785 44.192-44.192 44.192-1.899 0-3.769-0.12-5.605-0.352l0.218 0.023s-224.96-0.512-243.2-0.512zM106.272 594.368h55.2c0.657-0.078 1.419-0.122 2.191-0.122 9.624 0 17.639 6.885 19.389 15.998l0.020 0.124c10.24 64 35.648 140.48 68.768 172.416 43.387 43.722 102.783 71.503 168.659 73.812l0.429 0.012v-38.688c-1.379 0.035-3.003 0.055-4.632 0.055-22.031 0-43.205-3.675-62.94-10.446l1.364 0.407c-24.876-10.113-46.246-23.729-64.686-40.508l0.174 0.156c-19.335-20.877-34.551-45.877-44.162-73.502l-0.446-1.474c-8.576-24.049-14.744-51.988-17.314-80.961l-0.094-1.311c1.229-9.22 9.043-16.259 18.501-16.259 1.095 0 2.167 0.094 3.21 0.275l-0.111-0.016h60.608l-104.896-101.12zM592 83.424c0.738-0.008 1.61-0.013 2.482-0.013 43.731 0 84.708 11.79 119.926 32.366l-1.128-0.609c38.711 27.675 66.418 68.594 76.574 116.023l0.226 1.257c3.577 13.886 5.63 29.827 5.63 46.248 0 2.451-0.046 4.89-0.136 7.319l0.010-0.351c-1.229 9.22-9.043 16.259-18.501 16.259-1.095 0-2.167-0.094-3.21-0.275l0.111 0.016h-60.384l99.36 101.12 49.696-48 49.664-53.216h-49.792c-16.576 0-27.104 0-27.104-21.28 0.002-0.342 0.003-0.746 0.003-1.151 0-57.633-18.831-110.868-50.675-153.887l0.496 0.702c-23.091-27.668-52.905-48.972-86.962-61.495l-1.422-0.457c-30.939-9.996-68.197-18.619-106.433-24.234l-3.903-0.47z" />
<glyph unicode="&#xe930;" glyph-name="arrow-right" d="M294.4-41.6c-6.4 0-12.8 3.2-19.2 9.6-9.6 9.6-9.6 28.8 0 38.4l435.2 435.2-464 464c-9.6 9.6-9.6 28.8 0 38.4s28.8 9.6 38.4 0l502.4-502.4-473.6-476.8c-6.4-6.4-12.8-6.4-19.2-6.4v0z" />
<glyph unicode="&#xe931;" glyph-name="card" d="M511.296 807.424q185.344 0 370.656 0c1.801 0.036 3.924 0.057 6.053 0.057 12.615 0 25.059-0.73 37.293-2.15l-1.489 0.141c55.648-1.171 100.311-46.559 100.311-102.379 0-4.1-0.241-8.145-0.71-12.119l0.046 0.482q0.768-254.592 0-509.216c0.17-2.362 0.267-5.117 0.267-7.894 0-64.525-52.307-116.832-116.832-116.832-1.579 0-3.152 0.031-4.716 0.093l0.225-0.007q-391.616-1.152-783.232 0c-1.991-0.126-4.317-0.198-6.66-0.198-61.997 0-112.256 50.259-112.256 112.256 0 2.998 0.117 5.968 0.348 8.906l-0.025-0.389q-1.44 253.408 0 506.816c0.448 82.080 40.448 121.792 121.6 122.24 129.76 0.704 259.52 0.192 389.28 0.192v0zM398.656 230.208c0 33.568 1.536 64.352-0.384 94.88-1.585 38.8-30.696 70.343-68.247 75.694l-0.425 0.050c-22.788 1.885-49.325 2.96-76.114 2.96-24.677 0-49.141-0.912-73.36-2.704l3.234 0.192c-33.16-1.893-59.985-26.743-64.911-58.812l-0.049-0.388c-3.933-31.323-6.177-67.571-6.177-104.344 0-2.691 0.012-5.38 0.036-8.065l-0.003 0.41h286.336zM343.392 550.848c0.016 0.624 0.025 1.36 0.025 2.097 0 48.018-38.926 86.944-86.944 86.944s-86.944-38.926-86.944-86.944c0-1.233 0.026-2.46 0.076-3.68l-0.006 0.175c-0.002-0.24-0.004-0.524-0.004-0.808 0-48.018 38.926-86.944 86.944-86.944s86.944 38.926 86.944 86.944c0 0.779-0.010 1.556-0.031 2.33l0.002-0.114zM681.92 343.456c45.088 0 90.144-0.256 135.232 0 2.185-0.532 4.694-0.838 7.275-0.838 17.383 0 31.528 13.86 31.988 31.131l0.001 0.043c0.187 1.288 0.293 2.775 0.293 4.287 0 17.39-14.098 31.488-31.488 31.488-2.119 0-4.188-0.209-6.19-0.608l0.201 0.033q-136.352 1.312-272.736 0c-1.653 0.306-3.555 0.481-5.498 0.481-17.479 0-31.648-14.169-31.648-31.648 0-1.57 0.114-3.112 0.335-4.621l-0.021 0.171c0.896-20.352 12.8-29.632 39.392-29.792 44.288-0.288 88.576 0 132.864 0v0zM682.368 224.544v-0.16c45.024 0 90.016-0.32 135.040 0 2.118-0.499 4.55-0.786 7.048-0.786 17.421 0 31.59 13.92 31.991 31.244l0.001 0.037c0.009 0.29 0.014 0.632 0.014 0.975 0 18.115-14.685 32.8-32.8 32.8-1.483 0-2.943-0.098-4.374-0.289l0.168 0.018c-91.552 0.704-183.136 0.448-274.688-0.288-0.208 0.005-0.453 0.007-0.699 0.007-9.341 0-17.779-3.863-23.805-10.079l-0.008-0.009c-4.95-6.467-7.931-14.668-7.931-23.566 0-2.828 0.301-5.586 0.873-8.243l-0.046 0.256c7.132-11.018 18.488-18.781 31.723-21.017l0.277-0.039c45.664-2.336 91.52-0.96 137.312-0.96v0zM731.456 461.344c28.8 0 57.28-0.352 85.92 0 1.734-0.322 3.729-0.505 5.767-0.505 17.744 0 32.233 13.941 33.11 31.467l0.003 0.078c-0.221 17.080-14.118 30.84-31.23 30.84-2.038 0-4.030-0.195-5.959-0.568l0.196 0.032q-89.376 1.568-178.784 0c-1.294 0.19-2.788 0.299-4.307 0.299-17.231 0-31.2-13.969-31.2-31.2 0-0.386 0.007-0.771 0.021-1.154l-0.002 0.055c1.672-16.875 15.793-29.948 32.968-29.948 1.839 0 3.643 0.15 5.4 0.438l-0.192-0.026c29.408 0 58.848 0 88.256 0v0z" />
<glyph unicode="&#xe932;" d="M912.704-32.288c0.001 0.296 0.001 0.646 0.001 0.997 0 187.333-122.507 346.053-291.777 400.417l-2.976 0.826c92.316 45.582 154.695 139.063 154.695 247.113 0 0.672-0.002 1.343-0.007 2.014l0.001-0.103c0.020 1.24 0.032 2.704 0.032 4.171 0 150.115-121.693 271.808-271.808 271.808s-271.808-121.693-271.808-271.808c0-1.466 0.012-2.93 0.035-4.391l-0.003 0.22c0.153-108.535 62.389-202.498 153.094-248.294l1.594-0.73c-172.159-54.505-294.759-212.839-294.759-399.809 0-0.855 0.003-1.709 0.008-2.563l-0.001 0.132h823.68z" />
<glyph unicode="&#xe933;" d="M617.952 369.984c92.316 45.582 154.695 139.063 154.695 247.113 0 0.672-0.002 1.343-0.007 2.014l0.001-0.103c0.020 1.24 0.032 2.704 0.032 4.171 0 150.115-121.693 271.808-271.808 271.808s-271.808-121.693-271.808-271.808c0-1.466 0.012-2.93 0.035-4.391l-0.003 0.22c0.153-108.535 62.389-202.498 153.094-248.294l1.594-0.73c-172.159-54.505-294.759-212.839-294.759-399.809 0-0.855 0.003-1.709 0.008-2.563l-0.001 0.132h41.824c-0.006 0.795-0.010 1.736-0.010 2.677 0 197.997 153.485 360.146 347.965 373.958l1.196 0.068c6.4 0 14.624-2.144 20.896-2.144 1.013-0.052 2.199-0.082 3.392-0.082 6.22 0 12.251 0.812 17.992 2.337l-0.488-0.11c195.521-13.137 349.142-174.953 349.142-372.649 0-1.426-0.008-2.85-0.024-4.272l0.002 0.217h41.824c0.001 0.296 0.001 0.646 0.001 0.997 0 187.333-122.507 346.053-291.777 400.417l-2.976 0.826zM272.992 618.976c-0.004 0.48-0.006 1.046-0.006 1.614 0 126.36 101.721 228.961 227.743 230.385l0.134 0.001c126.479-2.168 228.179-105.207 228.179-232s-101.699-229.832-227.975-231.997l-0.203-0.003c-126.157 1.425-227.878 104.027-227.878 230.386 0 0.568 0.002 1.135 0.006 1.701v-0.087z" />
<glyph unicode="&#xe934;" glyph-name="bin2" horiz-adv-x="1089" d="M674.479 705.321h-35.129v52.694c0 5.269-7.026 10.539-17.565 10.539h-172.133c-10.539 0-17.565-5.269-17.565-10.539v-52.694h-35.129v52.694c0 24.59 22.834 45.668 52.694 45.668h172.133c29.86 0 52.694-21.077 52.694-45.668v-52.694zM888.766 670.192h-686.774c-10.539 0-17.565 7.026-17.565 17.565s7.026 17.565 17.565 17.565h686.774c10.539 0 17.565-7.026 17.565-17.565s-8.782-17.565-17.565-17.565zM774.597 92.318h-446.14c-36.886 0-66.745 31.616-66.745 70.258v521.667c0 10.539 7.026 17.565 17.565 17.565s17.565-7.026 17.565-17.565v-521.667c0-19.321 14.052-35.129 31.616-35.129h446.14c17.565 0 31.616 15.808 31.616 35.129v416.28c0 10.539 7.026 17.565 17.565 17.565s17.565-7.026 17.565-17.565v-416.28c-1.756-38.642-31.616-70.258-66.745-70.258zM447.896 246.886c-10.539 0-17.565 7.026-17.565 17.565v270.494c0 10.539 7.026 17.565 17.565 17.565s17.565-7.026 17.565-17.565v-270.494c0-8.782-7.026-17.565-17.565-17.565zM553.283 246.886c-10.539 0-17.565 7.026-17.565 17.565v270.494c0 10.539 7.026 17.565 17.565 17.565s17.565-7.026 17.565-17.565v-270.494c0-8.782-7.026-17.565-17.565-17.565zM662.184 246.886c-10.539 0-17.565 7.026-17.565 17.565v270.494c0 10.539 7.026 17.565 17.565 17.565s17.565-7.026 17.565-17.565v-270.494c0-8.782-8.782-17.565-17.565-17.565z" />
<glyph unicode="&#xe935;" glyph-name="arrow-down" d="M22.4 665.6c0 6.4 3.2 12.8 9.6 19.2 9.6 9.6 28.8 9.6 38.4 0l435.2-435.2 464 464c9.6 9.6 28.8 9.6 38.4 0s9.6-28.8 0-38.4l-502.4-502.4-476.8 473.6c-6.4 6.4-6.4 12.8-6.4 19.2v0z" />
<glyph unicode="&#xe936;" glyph-name="apostrophe" horiz-adv-x="166" d="M83.027 960c47.049 0 83.027-35.978 83.027-83.027s-35.978-83.027-83.027-83.027-83.027 35.978-83.027 83.027 35.978 83.027 83.027 83.027zM83.027 517.189c47.049 0 83.027-35.978 83.027-83.027s-35.978-83.027-83.027-83.027-83.027 35.978-83.027 83.027 35.978 83.027 83.027 83.027zM83.027 102.054c47.049 0 83.027-35.978 83.027-83.027s-35.978-83.027-83.027-83.027-83.027 35.978-83.027 83.027 35.978 83.027 83.027 83.027z" />
<glyph unicode="&#xe937;" glyph-name="attach" horiz-adv-x="896" d="M229.376 289.664v0l0.448 0.48 1.248 1.056c0.117 0.062 0.214 0.149 0.286 0.253l0.002 0.003 378.976 375.52c4.616 4.596 7.473 10.956 7.473 17.984s-2.857 13.388-7.472 17.983l-0.001 0.001c-4.672 4.608-11.091 7.454-18.176 7.454s-13.504-2.846-18.179-7.457l0.003 0.003-385.664-381.952c-1.62-1.587-3.013-3.398-4.13-5.384l-0.062-0.12c-20.208-24.306-32.473-55.843-32.473-90.244 0-39.514 16.181-75.248 42.279-100.938l0.018-0.018c26.245-25.996 62.37-42.058 102.246-42.058 37.669 0 71.989 14.333 97.807 37.842l-0.116-0.104 0.8 0.704 436.192 432c40.178 39.506 65.075 94.444 65.075 155.197 0 60.516-24.703 115.262-64.576 154.704l-0.019 0.019c-40.273 39.628-95.567 64.095-156.576 64.095s-116.303-24.467-156.606-64.124l0.030 0.029-433.952-430.336c-0.188-0.165-0.356-0.343-0.506-0.535l-0.006-0.009c-51.338-52.202-83.033-123.86-83.033-202.922 0-80.274 32.675-152.915 85.45-205.351l0.015-0.015c53.433-52.375 126.69-84.7 207.497-84.7 78.184 0 149.3 30.26 202.276 79.707l-0.173-0.16c0.469 0.337 0.875 0.662 1.265 1.006l-0.017-0.014 1.152 1.088 2.752 2.656c0.088 0.105 0.183 0.2 0.284 0.285l0.004 0.003 378.784 375.52c0.069 0.084 0.132 0.179 0.187 0.278l0.005 0.010c0.672 0.576 1.248 1.216 1.952 1.856 4.93 4.64 8 11.209 8 18.494 0 6.761-2.644 12.905-6.955 17.453l0.011-0.011c-4.726 4.924-11.361 7.983-18.711 7.983-6.837 0-13.056-2.647-17.688-6.973l0.015 0.014c-1.088-1.024-2.176-2.048-3.2-3.2l-378.688-375.264c-0.999-0.722-1.878-1.489-2.681-2.329l-0.007-0.007c-43.785-41.724-103.193-67.396-168.597-67.396-66.619 0-127.017 26.635-171.125 69.837l0.042-0.041c-43.523 43.287-70.459 103.214-70.459 169.431 0 65.164 26.085 124.236 68.384 167.342l-0.037-0.038c6.4 6.4 429.952 426.24 434.176 430.464 30.92 30.434 73.377 49.226 120.224 49.226s89.304-18.792 120.246-49.248l-0.022 0.022c30.615-30.272 49.574-72.276 49.574-118.708 0-46.669-19.153-88.864-50.028-119.154l-0.026-0.026-435.872-431.776c-16.484-14.845-38.414-23.926-62.465-23.926-25.69 0-48.961 10.361-65.861 27.131l0.006-0.006c-16.827 16.551-27.253 39.563-27.253 65.011 0 24.078 9.334 45.975 24.581 62.272l-0.048-0.051c0.636 0.611 1.196 1.293 1.67 2.036l0.026 0.044z" />
<glyph unicode="&#xe938;" d="M809.6 118.4h-112v243.2h112c16 0 32-12.8 32-32v-182.4c0-12.8-16-28.8-32-28.8zM704 176h25.6v6.4h-25.6v-6.4zM761.6 320h-57.6v-6.4h57.6v6.4zM761.6 249.6h-54.4v-6.4h54.4v6.4zM761.6 182.4h-16v-6.4h16v6.4z" />
<glyph unicode="&#xe939;" d="M771.2 112h-92.8v12.8h80c16 0 32 12.8 32 32v198.4c0 16-12.8 32-32 32h-80v12.8h92.8c16 0 32-12.8 32-32v0-224c0-16-16-32-32-32z" />
<glyph unicode="&#xe93a;" d="M681.6 112h-329.6c-16 0-32 12.8-32 32v435.2c0 16 12.8 32 32 32h329.6c16 0 32-12.8 32-32v-435.2c0-16-12.8-32-32-32zM336 329.6h217.6v9.6h-217.6c0 0 0-9.6 0-9.6zM336 422.4h80v9.6h-83.2v-9.6h3.2zM665.6 531.2h-329.6v-9.6h332.8v9.6h-3.2zM665.6 432h-192v-9.6h192v9.6zM665.6 339.2h-57.6v-9.6h57.6v9.6zM665.6 249.6h-329.6v-9.6h332.8v9.6h-3.2z" />
<glyph unicode="&#xe93b;" d="M700.8 166.4v464c0 16-12.8 32-32 32h-86.4v12.8h99.2c16 0 32-12.8 32-32v-476.8h-12.8zM284.8 630.4v-131.2h-12.8v144c0 16 12.8 32 32 32h252.8v-12.8h-243.2c-16 0-28.8-12.8-28.8-32zM284.8 444.8h-12.8v38.4h12.8v-38.4zM284.8 156.8c0-16 12.8-32 32-32h355.2c3.2 0 3.2 0 6.4 0v0h32c-6.4-6.4-16-12.8-25.6-12.8h-380.8c-16 0-32 12.8-32 32v275.2h12.8v-262.4z" />
<glyph unicode="&#xe93c;" d="M713.6 115.2c-6.4 6.4-12.8 16-12.8 25.6v44.8h12.8v-32c0-12.8 3.2-25.6 12.8-32l3.2-6.4h-16z" />
<glyph unicode="&#xe93d;" d="M115.2 656c-12.8 19.2-35.2 25.6-54.4 16-9.6-6.4-16-16-19.2-28.8-12.8-3.2-19.2-16-16-28.8 3.2-9.6 9.6-16 19.2-16v0h67.2c16 0 28.8 12.8 28.8 28.8s-12.8 28.8-25.6 28.8z" />
<glyph unicode="&#xe93e;" d="M89.6 656c-12.8 19.2-35.2 25.6-54.4 16-9.6-6.4-16-16-19.2-28.8-12.8-3.2-19.2-16-16-28.8 3.2-9.6 9.6-16 19.2-16v0h67.2c16 0 28.8 12.8 28.8 28.8s-12.8 28.8-25.6 28.8zM86.4 604.8h-64c-9.6 0-16 6.4-16 16s6.4 16 12.8 16h3.2v3.2c3.2 19.2 19.2 32 38.4 28.8 9.6 0 16-6.4 22.4-12.8-9.6-3.2-16-6.4-19.2-12.8v-3.2h3.2c3.2 6.4 9.6 9.6 19.2 9.6 12.8 0 22.4-9.6 22.4-22.4s-9.6-22.4-22.4-22.4z" />
<glyph unicode="&#xe93f;" d="M998.4 348.8v0c12.8 3.2 22.4 9.6 25.6 19.2 0 3.2 0 6.4 0 12.8-3.2 9.6-12.8 19.2-22.4 19.2h-3.2c-6.4 12.8-25.6 19.2-38.4 9.6-6.4-3.2-12.8-12.8-12.8-19.2-12.8 0-19.2-9.6-19.2-22.4s9.6-22.4 22.4-22.4l48 3.2z" />
<glyph unicode="&#xe940;" d="M889.6 563.2c9.6 0 16-6.4 16-16s-6.4-16-16-16-16 6.4-16 16v0c0 9.6 6.4 16 16 16v0zM889.6 556.8c6.4 0 9.6-6.4 9.6-9.6 0-6.4-6.4-9.6-9.6-9.6-6.4 0-9.6 6.4-9.6 9.6v0c0 6.4 3.2 9.6 9.6 9.6v0z" />
<glyph unicode="&#xe941;" d="M668.8 784c6.4 0 9.6-6.4 9.6-9.6s-6.4-9.6-9.6-9.6c-6.4 0-9.6 6.4-9.6 9.6s3.2 9.6 9.6 9.6v0zM668.8 777.6c3.2 0 6.4-3.2 6.4-6.4s-3.2-6.4-6.4-6.4-6.4 3.2-6.4 6.4c0 3.2 3.2 6.4 6.4 6.4v0z" />
<glyph unicode="&#xe942;" d="M195.2 230.4c6.4 0 12.8-6.4 12.8-12.8s-6.4-12.8-12.8-12.8c-6.4 0-12.8 6.4-12.8 12.8v0c-3.2 6.4 3.2 12.8 12.8 12.8v0zM195.2 224c6.4 0 9.6-3.2 9.6-9.6s-3.2-9.6-9.6-9.6c-6.4 0-9.6 3.2-9.6 9.6v0c0 6.4 3.2 9.6 9.6 9.6v0z" />
<glyph unicode="&#xe943;" d="M790.4 723.2l22.4-12.8c3.2 0 3.2-3.2 3.2-6.4s-3.2-3.2-6.4-3.2v0l-22.4 12.8c-3.2 0-3.2 3.2-3.2 6.4s3.2 3.2 6.4 3.2zM806.4 726.4c3.2 0 3.2-3.2 3.2-6.4v0l-12.8-22.4c0-3.2-3.2-3.2-6.4-3.2s-3.2 3.2-3.2 6.4l12.8 22.4c0 3.2 3.2 3.2 6.4 3.2z" />
<glyph unicode="&#xe944;" d="M124.8 528l22.4-12.8c3.2 0 3.2-3.2 3.2-6.4s-3.2-3.2-6.4-3.2v0l-22.4 12.8c-3.2 0-3.2 3.2-3.2 6.4s3.2 6.4 6.4 3.2v0zM144 534.4c3.2 0 3.2-3.2 3.2-6.4v0l-12.8-22.4c0-3.2-3.2-3.2-6.4-3.2s-3.2 3.2-3.2 6.4v0l12.8 22.4c0 3.2 3.2 3.2 6.4 3.2v0z" />
<glyph unicode="&#xe945;" d="M188.8 368l22.4-12.8c3.2 0 3.2-3.2 3.2-6.4s-3.2-3.2-6.4-3.2v0l-22.4 12.8c-3.2 0-3.2 3.2-3.2 6.4s3.2 3.2 6.4 3.2v0zM204.8 371.2c3.2 0 3.2-3.2 3.2-6.4v0l-12.8-22.4c0-3.2-3.2-3.2-6.4-3.2s-3.2 3.2-3.2 6.4v0l12.8 22.4c3.2 6.4 6.4 6.4 6.4 3.2v0z" />
<glyph unicode="&#xe946;" d="M352 764.8l32-19.2c0 0 3.2-3.2 0-6.4 0-3.2-6.4-6.4-9.6-3.2v0l-32 19.2c-3.2 3.2-3.2 6.4-3.2 9.6 3.2 0 9.6 3.2 12.8 0v0zM374.4 771.2c3.2-3.2 3.2-6.4 3.2-9.6l-19.2-32c-3.2-3.2-6.4-3.2-9.6-3.2-3.2 3.2-3.2 6.4-3.2 9.6v0l19.2 32c3.2 3.2 6.4 6.4 9.6 3.2z" />
<glyph unicode="&#xe947;" d="M953.6 249.6c6.4 0 12.8-6.4 12.8-12.8s-6.4-12.8-12.8-12.8-12.8 6.4-12.8 12.8 3.2 12.8 12.8 12.8v0zM953.6 243.2c6.4 0 9.6-3.2 9.6-9.6s-6.4-9.6-9.6-9.6c-6.4 0-9.6 3.2-9.6 9.6v0c0 6.4 3.2 9.6 9.6 9.6z" />
<glyph unicode="&#xe948;" d="M976 352v0c12.8 3.2 22.4 9.6 25.6 19.2 0 3.2 0 6.4 0 12.8-3.2 9.6-12.8 19.2-22.4 19.2h-3.2c-6.4 12.8-25.6 19.2-38.4 9.6-6.4-3.2-12.8-12.8-12.8-19.2-12.8 0-19.2-9.6-19.2-22.4s9.6-22.4 22.4-22.4l48 3.2zM976 358.4h-51.2c-9.6 0-16 6.4-16 16s6.4 16 16 16v0 0h3.2v3.2c0 12.8 9.6 19.2 22.4 19.2 9.6 0 16-6.4 19.2-12.8v-3.2h6.4c9.6 0 16-6.4 19.2-16 0-3.2 0-6.4 0-9.6-3.2-3.2-9.6-9.6-19.2-12.8z" />
<glyph unicode="&#xe949;" glyph-name="alert-information" d="M1024 448c0 282.77-229.23 512-512 512s-512-229.23-512-512c0-282.77 229.23-512 512-512 117.411 0 228.826 39.669 318.768 111.313 10.789 8.594 12.568 24.307 3.974 35.097s-24.307 12.568-35.097 3.974c-81.176-64.662-181.644-100.433-287.646-100.433-255.182 0-462.049 206.866-462.049 462.049s206.866 462.049 462.049 462.049c255.182 0 462.049-206.866 462.049-462.049 0-87.493-24.334-171.337-69.578-243.961-7.294-11.708-3.716-27.111 7.992-34.405s27.111-3.716 34.405 7.992c50.146 80.493 77.132 173.475 77.132 270.374zM499.512 216.976c0-13.794 11.182-24.976 24.976-24.976s24.976 11.182 24.976 24.976v318.439c0 13.794-11.182 24.976-24.976 24.976s-24.976-11.182-24.976-24.976v-318.439zM499.512 641.561c0-13.794 11.182-24.976 24.976-24.976s24.976 11.182 24.976 24.976v43.707c0 13.794-11.182 24.976-24.976 24.976s-24.976-11.182-24.976-24.976v-43.707z" />
<glyph unicode="&#xe94a;" glyph-name="alert-wrong" d="M1024 448c0 282.77-229.23 512-512 512s-512-229.23-512-512c0-282.77 229.23-512 512-512 117.411 0 228.826 39.669 318.768 111.313 10.789 8.594 12.568 24.307 3.974 35.097s-24.307 12.568-35.097 3.974c-81.176-64.662-181.644-100.433-287.646-100.433-255.182 0-462.049 206.866-462.049 462.049s206.866 462.049 462.049 462.049c255.182 0 462.049-206.866 462.049-462.049 0-87.493-24.334-171.337-69.578-243.961-7.294-11.708-3.716-27.111 7.992-34.405s27.111-3.716 34.405 7.992c50.146 80.493 77.132 173.475 77.132 270.374zM331.839 296.425c-9.665-9.842-9.522-25.655 0.32-35.319s25.655-9.522 35.319 0.32l349.996 356.392c9.665 9.842 9.522 25.655-0.32 35.319s-25.655 9.522-35.319-0.32l-349.996-356.392zM681.835 261.425c9.665-9.842 25.478-9.985 35.319-0.32s9.985 25.478 0.32 35.319l-349.996 356.392c-9.665 9.842-25.478 9.985-35.319 0.32s-9.985-25.478-0.32-35.319l349.996-356.392z" />
<glyph unicode="&#xe94b;" glyph-name="alert-success" d="M464.248 282.512c9.967-9.161 25.418-8.714 34.838 1.009l299.819 309.441c9.598 9.906 9.349 25.718-0.558 35.316s-25.718 9.349-35.316-0.558l-299.819-309.441 34.838 1.009-181.442 166.771c-10.155 9.334-25.955 8.669-35.29-1.487s-8.669-25.955 1.487-35.29l181.442-166.771zM1024 448c0 282.77-229.23 512-512 512s-512-229.23-512-512c0-282.77 229.23-512 512-512 117.411 0 228.826 39.669 318.768 111.313 10.789 8.594 12.568 24.307 3.974 35.097s-24.307 12.568-35.097 3.974c-81.176-64.662-181.644-100.433-287.646-100.433-255.182 0-462.049 206.866-462.049 462.049s206.866 462.049 462.049 462.049c255.182 0 462.049-206.866 462.049-462.049 0-87.493-24.334-171.337-69.578-243.961-7.294-11.708-3.716-27.111 7.992-34.405s27.111-3.716 34.405 7.992c50.146 80.493 77.132 173.475 77.132 270.374z" />
<glyph unicode="&#xe94c;" glyph-name="x" d="M572.267 426.667l225.867 225.867c16.533 16.533 16.533 43.733 0 60.267s-43.733 16.533-60.267 0l-225.867-225.867-225.867 225.867c-16.533 16.533-43.733 16.533-60.267 0s-16.533-43.733 0-60.267l225.867-225.867-225.867-225.867c-16.533-16.533-16.533-43.733 0-60.267 8.267-8.267 19.2-12.533 30.133-12.533s21.867 4.267 30.133 12.533l225.867 225.867 225.867-225.867c8.267-8.267 19.2-12.533 30.133-12.533s21.867 4.267 30.133 12.533c16.533 16.533 16.533 43.733 0 60.267l-225.867 225.867z" />
<glyph unicode="&#xe94d;" glyph-name="menu-pen" d="M989.867 722.227l-204.015 204.186c-20.856 20.898-49.69 33.827-81.545 33.827s-60.689-12.929-81.543-33.825l-0.002-0.002-622.319-622.967v-367.923h366.729l39.356 39.424-37.547 37.547-18.91-19.149h-292.045v287.403l605.525 604.843c10.426 10.453 24.844 16.921 40.772 16.921s30.346-6.467 40.771-16.919l0.001-0.001 203.81-204.186c10.436-10.459 16.89-24.896 16.89-40.841s-6.454-30.381-16.891-40.842l0.001 0.001-534.357-541.218 37.547-37.751 537.771 538.146c20.873 20.918 33.78 49.792 33.78 81.681s-12.907 60.763-33.782 81.683l0.002-0.002zM698.3 771.721l-45.875-45.773 137.114-137.353 45.739 45.773z" />
<glyph unicode="&#xe94e;" glyph-name="menu-send" d="M853.641 20.958h0.062c75.28 0.652 136.104 61.879 136.104 137.313 0 0.53-0.003 1.059-0.008 1.507v143.565l-0.001-0.048c0.012 0.331 0.018 0.664 0.018 0.998 0 14.61-11.844 26.453-26.453 26.453s-26.453-11.844-26.453-26.453c0-0.334 0.006-0.667 0.017-0.95v-143.49c0.002-0.265 0.004-0.53 0.004-0.796 0-46.177-37.183-83.668-83.289-84.168h-683.396c-46.058 0.499-83.241 37.991-83.241 84.168 0 0.266 0.001 0.531 0.003 0.756v575.515c-0.002 0.265-0.004 0.53-0.004 0.796 0 46.177 37.183 83.668 83.289 84.168h251.802c14.893 0 26.965 12.073 26.965 26.965s-12.073 26.965-26.965 26.965l-251.886-0.001c-75.305-0.884-136.079-62.204-136.079-137.718 0-0.399 0.002-0.798 0.005-1.135v-575.495c-0.003-0.398-0.005-0.797-0.005-1.196 0-75.515 60.774-136.835 136.163-137.719h683.349zM404.924 256.853l0.039 0.001c7.431 0.206 14.152 3.254 19.109 8.089l534.526 545.278c4.879 4.933 7.892 11.716 7.892 19.202s-3.013 14.27-7.89 19.2l-0.009 0.009c-4.729 4.938-11.387 8.014-18.764 8.014s-14.036-3.075-18.773-8.023l-534.628-545.278c-4.879-4.933-7.892-11.716-7.892-19.202s3.013-14.27 7.89-19.2l0.011-0.012c4.647-4.909 11.2-7.996 18.489-8.078zM960.717 817.596v0c14.893 0 26.965 12.073 26.965 26.965s-12.073 26.965-26.965 26.965h-311.296c-14.893 0-26.965-12.073-26.965-26.965s12.073-26.965 26.965-26.965h311.296zM960.717 500.156c-14.632 0.192-26.42 12.099-26.42 26.758 0 0.073 0 0.145 0.001 0.218v-0.011 317.44c-0.011 0.283-0.017 0.616-0.017 0.95 0 14.61 11.844 26.453 26.453 26.453s26.453-11.844 26.453-26.453c0-0.334-0.006-0.667-0.018-0.998l0.001 0.048v-317.44c0.001-0.061 0.001-0.134 0.001-0.207 0-14.672-11.807-26.586-26.438-26.759h-0.016z" />
<glyph unicode="&#xe94f;" glyph-name="tag" horiz-adv-x="801" d="M400.696 960c-222.609 0-400.696-182.539-400.696-400.696 0-213.704 360.626-592.139 373.983-609.948 8.904-8.904 17.809-13.357 26.713-13.357v0c8.904 0 22.261 4.452 26.713 13.357l124.661 142.47c164.73 204.8 249.322 360.626 249.322 467.478 0 218.157-178.087 400.696-400.696 400.696zM400.696 376.765c-102.4 0-182.539 80.139-182.539 182.539s80.139 182.539 182.539 182.539c102.4 0 182.539-80.139 182.539-182.539 0 0 0 0 0 0 0-102.4-80.139-182.539-182.539-182.539z" />
<glyph unicode="&#xe950;" glyph-name="" horiz-adv-x="801" d="M400.696 960c-222.609 0-400.696-182.539-400.696-400.696 0-213.704 360.626-592.139 373.983-609.948 8.904-8.904 17.809-13.357 26.713-13.357v0c8.904 0 22.261 4.452 26.713 13.357l124.661 142.47c164.73 204.8 249.322 360.626 249.322 467.478 0 218.157-178.087 400.696-400.696 400.696zM400.696 376.765c-102.4 0-182.539 80.139-182.539 182.539s80.139 182.539 182.539 182.539 182.539-80.139 182.539-182.539v0c0-102.4-80.139-182.539-182.539-182.539z" />
<glyph unicode="&#xe951;" glyph-name="checkmark2" d="M829.44-64h-634.88c-109.227 0-194.56 85.333-194.56 194.56v634.88c0 109.227 85.333 194.56 194.56 194.56h430.080c20.48 0 34.133-13.653 34.133-34.133s-13.653-34.133-34.133-34.133h-430.080c-71.68 0-126.293-54.613-126.293-126.293v-638.293c0-68.267 54.613-126.293 126.293-126.293h638.293c68.267 0 126.293 54.613 126.293 126.293v385.707c0 20.48 13.653 34.133 34.133 34.133s34.133-13.653 34.133-34.133v-385.707c-3.413-105.813-88.747-191.147-197.973-191.147v0zM477.867 250.027l-221.867 276.48c-10.24 13.653-10.24 37.547 3.413 47.787 17.067 10.24 37.547 6.827 47.787-6.827l174.080-218.453 453.973 457.387c13.653 13.653 34.133 13.653 47.787 0s13.653-34.133 0-47.787l-505.173-508.587z" />
<glyph unicode="&#xe952;" glyph-name="arrow4-left" d="M576.853-64l-508.587 512 508.587 512h378.88l-505.173-512 505.173-512h-378.88z" />
<glyph unicode="&#xe953;" glyph-name="arrow4-right" d="M68.267-64l508.587 512-508.587 512h382.293l505.173-512-508.587-512h-378.88z" />
<glyph unicode="&#xe954;" glyph-name="keyboard" d="M508.587 734.72c0 23.893 17.067 40.96 40.96 40.96h78.507c23.893 0 40.96-17.067 40.96-40.96v-81.92c0-23.893-17.067-40.96-40.96-40.96h-81.92c-23.893 0-40.96 17.067-40.96 40.96v81.92zM508.587 488.96v-81.92c0-23.893-17.067-40.96-40.96-40.96h-78.507c-23.893 0-40.96 17.067-40.96 40.96v81.92c0 23.893 17.067 40.96 40.96 40.96h78.507c23.893 0 40.96-17.067 40.96-40.96zM269.653 734.72c0 23.893 17.067 40.96 40.96 40.96h78.507c23.893 0 40.96-17.067 40.96-40.96v-81.92c0-23.893-17.067-40.96-40.96-40.96h-81.92c-23.893 0-40.96 17.067-40.96 40.96v81.92zM30.72 734.72c0 23.893 17.067 40.96 40.96 40.96h78.507c23.893 0 40.96-17.067 40.96-40.96v-81.92c0-23.893-17.067-40.96-40.96-40.96h-81.92c-23.893 0-40.96 17.067-40.96 40.96v81.92zM187.733 161.28c0-23.893-17.067-40.96-40.96-40.96h-78.507c-23.893 0-40.96 17.067-40.96 40.96v81.92c0 23.893 17.067 40.96 40.96 40.96h78.507c23.893 0 40.96-17.067 40.96-40.96 0 0 0-81.92 0-81.92zM228.693 366.080h-78.507c-23.893 0-40.96 17.067-40.96 40.96v81.92c0 23.893 17.067 40.96 40.96 40.96h78.507c23.893 0 40.96-17.067 40.96-40.96v-81.92c0-23.893-20.48-40.96-40.96-40.96zM587.093 161.28c0-23.893-17.067-40.96-40.96-40.96h-238.933c-23.893 0-40.96 17.067-40.96 40.96v81.92c0 23.893 17.067 40.96 40.96 40.96h238.933c23.893 0 40.96-17.067 40.96-40.96v-81.92zM587.093 407.040v81.92c0 23.893 17.067 40.96 40.96 40.96h78.507c23.893 0 40.96-17.067 40.96-40.96v-81.92c0-23.893-17.067-40.96-40.96-40.96h-78.507c-23.893 0-40.96 17.067-40.96 40.96v0zM986.453 161.28c0-23.893-17.067-40.96-40.96-40.96h-238.933c-23.893 0-40.96 17.067-40.96 40.96v81.92c0 23.893 17.067 40.96 40.96 40.96h78.507c23.893 0 40.96 17.067 40.96 40.96v163.84c0 23.893 17.067 40.96 40.96 40.96h78.507c23.893 0 40.96-17.067 40.96-40.96v-327.68zM986.453 652.8c0-23.893-17.067-40.96-40.96-40.96h-160.427c-23.893 0-40.96 17.067-40.96 40.96v81.92c0 23.893 17.067 40.96 40.96 40.96h160.427c23.893 0 40.96-17.067 40.96-40.96v-81.92z" />
<glyph unicode="&#xe955;" glyph-name="arrow5-right" d="M648.533 410.453l6.827-3.413-286.72-453.973-6.827 3.413 286.72 453.973zM655.36 410.453l-6.827-3.413-276.48 532.48 6.827 3.413 276.48-532.48z" />
<glyph unicode="&#xe956;" glyph-name="cpc" d="M655.36 861.013c23.893-10.24 47.787-20.48 68.267-34.133-245.76 157.013 419.84-153.6 133.12-634.88l-13.653-20.48 17.067-17.067 78.507-88.747-64.853-64.853-88.747 78.507-17.067 17.067-20.48-13.653c51.2 30.72-273.067-163.84-559.787 10.24l-20.48 13.653-40.96-40.96 3.413-13.653v-3.413c3.413-13.653 0-27.307-13.653-34.133-6.827-6.827-20.48-13.653-30.72-13.653-23.893 0-44.373 20.48-44.373 44.373 0 13.653 3.413 23.893 13.653 30.72 6.827 6.827 17.067 13.653 30.72 13.653h3.413c3.413 0 3.413 0 6.827 0l17.067-3.413 10.24 10.24c3.413 3.413 6.827 6.827 10.24 10.24l17.067 20.48-20.48 13.653c-17.067 17.067-34.133 37.547-47.787 58.027l37.547 37.547c221.867-194.56 443.733-170.667 556.373-105.813l34.133 34.133-34.133 34.133-324.267 314.027-20.48 20.48-92.16-92.16-92.16 85.333 204.8 211.627c20.48-6.827 40.96-10.24 61.44-13.653 37.547 0 51.2 20.48 81.92 37.547l34.133-34.133-119.467-119.467 20.48-20.48 314.027-324.267 34.133-34.133 34.133 34.133c146.773 286.72-64.853 518.827-157.013 597.333zM501.76 922.453c-3.413 0-6.827 0-10.24 0 245.76-92.16 395.947-389.12 269.653-628.053l-286.72 331.093 98.987 98.987c0 0-98.987 98.987-98.987 98.987-10.24-27.307-27.307-75.093-68.267-64.853-23.893 10.24-44.373 20.48-64.853 34.133l-262.827-262.827 163.84-133.12 64.853 64.853 331.093-296.96c-51.2-27.307-109.227-37.547-163.84-34.133-136.533 6.827-266.24 64.853-361.813 163.84l-98.987-98.987c23.893-30.72 71.68-51.2 95.573-75.093-3.413-3.413-6.827-6.827-10.24-6.827s-10.24 3.413-13.653 3.413c-40.96 0-71.68-34.133-71.68-75.093s34.133-71.68 71.68-75.093c40.96 0 75.093 34.133 75.093 75.093 0 3.413 0 10.24-3.413 13.653l13.653 10.24c85.333-61.44 191.147-95.573 296.96-98.987 95.573 0 201.387 6.827 303.787 64.853l98.987-98.987 133.12 133.12-98.987 98.987c232.107 385.707-98.987 757.76-402.773 757.76v0z" />
<glyph unicode="&#xe957;" glyph-name="help" d="M512 960c-283.307 0-512-228.693-512-512s228.693-512 512-512 512 228.693 512 512-228.693 512-512 512zM512-19.627c-259.413 0-467.627 208.213-467.627 467.627s208.213 471.040 467.627 471.040c259.413 0 467.627-211.627 467.627-467.627 0-259.413-208.213-471.040-467.627-471.040zM522.24 717.653c-105.813 0-163.84-51.2-167.253-153.6h47.787c0 75.093 37.547 112.64 116.053 112.64 58.027 0 105.813-40.96 105.813-98.987 0-37.547-20.48-68.267-47.787-92.16-54.613-51.2-71.68-88.747-75.093-157.013h47.787c3.413 64.853 0 75.093 58.027 129.707 37.547 34.133 64.853 68.267 64.853 122.88-3.413 88.747-71.68 136.533-150.187 136.533zM522.24 260.267c-23.893 0-40.96-17.067-40.96-40.96s17.067-40.96 40.96-40.96c23.893 0 40.96 17.067 40.96 40.96s-17.067 40.96-40.96 40.96z" />
<glyph unicode="&#xe958;" glyph-name="location" d="M832.853 260.267l-320.853-331.093-320.853 331.093c-139.947 174.080-109.227 433.493 68.267 573.44s433.493 112.64 573.44-64.853c58.027-71.68 88.747-160.427 88.747-252.587 0-95.573-30.72-184.32-88.747-256zM433.493 864.427c-139.947-30.72-245.76-139.947-273.067-279.893-23.893-119.467 13.653-242.347 102.4-327.68l249.173-256 249.173 256c143.36 136.533 146.773 365.227 10.24 505.173-88.747 92.16-215.040 129.707-337.92 102.4v0 0zM512 335.36c-98.987 0-177.493 78.507-180.907 177.493 0 0 0 0 0 0 0 98.987 81.92 177.493 180.907 177.493s177.493-78.507 180.907-177.493c0 0 0 0 0 0-3.413-98.987-81.92-177.493-180.907-177.493zM512 642.56c-71.68 0-129.707-54.613-129.707-126.293s54.613-129.707 126.293-129.707c71.68 0 129.707 54.613 129.707 126.293 0 0 0 0 0 3.413 0 68.267-54.613 126.293-126.293 126.293v0z" />
<glyph unicode="&#xe959;" glyph-name="pc" d="M1024 270.507c0-61.44-47.787-112.64-109.227-112.64 0 0 0 0 0 0h-805.547c-61.44 0-109.227 51.2-109.227 112.64v525.653c0 61.44 47.787 112.64 109.227 112.64h805.547c61.44 0 109.227-51.2 109.227-112.64 0 0 0 0 0 0v-525.653zM952.32 796.16c0 20.48-13.653 37.547-34.133 37.547 0 0 0 0 0 0h-808.96c-20.48 0-37.547-17.067-37.547-37.547v-525.653c0-20.48 17.067-37.547 37.547-37.547h805.547c20.48 0 37.547 17.067 37.547 37.547v525.653zM34.133 420.693h955.733v-75.093h-955.733v75.093zM750.933-29.867h-474.453c-20.48 0-37.547 17.067-37.547 37.547s17.067 37.547 37.547 37.547h474.453c20.48 0 37.547-17.067 37.547-37.547s-17.067-37.547-37.547-37.547v0zM331.093 157.867h71.68v-150.187h-71.68v150.187zM583.68 157.867h75.093v-150.187h-75.093v150.187z" />
<glyph unicode="&#xe95a;" glyph-name="phone" d="M791.893 925.867h-525.653c-40.96 0-75.093-30.72-78.507-71.68v-826.027c0-40.96 37.547-75.093 78.507-71.68h529.067c40.96 0 71.68 34.133 71.68 71.68v826.027c0 40.96-34.133 75.093-75.093 71.68v0zM266.24 857.6h529.067c3.413 0 3.413-3.413 3.413-3.413s0 0 0 0v-610.987h-542.72v610.987c0 3.413 6.827 3.413 10.24 3.413zM791.893 24.747h-525.653c-3.413 0-3.413 3.413-3.413 3.413s0 0 0 0v146.773h539.307v-146.773c0-3.413-6.827-3.413-10.24-3.413v0 0zM484.693 96.427c0-23.893 20.48-44.373 44.373-44.373s44.373 20.48 44.373 44.373v0c0 23.893-20.48 44.373-44.373 44.373s-44.373-20.48-44.373-44.373c0 0 0 0 0 0z" />
<glyph unicode="&#xe95b;" glyph-name="plus" d="M522.24 960v0c17.067 0 34.133-13.653 34.133-34.133v0-955.733c0-17.067-13.653-34.133-34.133-34.133v0c-17.067 0-34.133 13.653-34.133 34.133v0 955.733c0 20.48 17.067 34.133 34.133 34.133zM51.2 485.547h918.187c20.48 0 34.133-17.067 34.133-34.133v0 0c0-20.48-17.067-34.133-34.133-34.133 0 0 0 0 0 0h-918.187c-20.48 0-34.133 17.067-34.133 34.133v0c0 17.067 17.067 34.133 34.133 34.133 0 0 0 0 0 0z" />
<glyph unicode="&#xe95c;" glyph-name="switch" d="M0 724.48c3.413-129.707 112.64-235.52 242.347-232.107 0 0 0 0 0 0 6.827 0 10.24 0 17.067 0h505.173c6.827 0 10.24 0 17.067 0 129.707-3.413 238.933 102.4 242.347 232.107-3.413 133.12-109.227 235.52-242.347 232.107-6.827 0-10.24 0-17.067 0h-505.173c-6.827 0-10.24 0-17.067 0-133.12 3.413-238.933-98.987-242.347-232.107zM556.373 724.48c3.413 116.053 98.987 204.8 215.040 201.387 109.227-3.413 194.56-92.16 201.387-201.387-3.413-116.053-98.987-204.8-215.040-201.387-112.64 6.827-197.973 92.16-201.387 201.387v0z" />
<glyph unicode="&#xe95d;" glyph-name="title" d="M911.36 802.987l-150.187 146.773c-6.827 6.827-17.067 10.24-27.307 10.24h-597.333c-17.067 0-34.133-17.067-34.133-34.133 0 0 0 0 0 0v-846.507c0-10.24 3.413-17.067 10.24-23.893l105.813-102.4c13.653-13.653 34.133-13.653 47.787 0l109.227 102.4 112.64-109.227c13.653-13.653 34.133-13.653 47.787 0l112.64 109.227 112.64-109.227c6.827-6.827 13.653-10.24 23.893-10.24s17.067 3.413 23.893 10.24l102.4 98.987c6.827 6.827 10.24 17.067 10.24 23.893v706.56c0 10.24-3.413 20.48-10.24 27.307zM631.467 103.253l-119.467-116.053-119.467 116.053c-10.24 10.24-23.893 10.24-30.72 0l-116.053-112.64-95.573 92.16v832.853h583.68v-119.467c0-13.653 10.24-23.893 23.893-23.893 0 0 0 0 0 0h122.88v-699.733l-95.573-85.333-119.467 116.053c-10.24 6.827-23.893 6.827-34.133 0v0zM488.107 618.667h-177.493c-13.653 0-23.893 10.24-23.893 23.893s10.24 23.893 23.893 23.893h180.907c10.24-3.413 20.48-13.653 20.48-23.893s-10.24-23.893-23.893-23.893zM713.387 502.613h-402.773c-13.653 0-23.893 10.24-23.893 23.893s10.24 23.893 23.893 23.893h406.187c13.653 0 23.893-10.24 23.893-23.893s-13.653-23.893-27.307-23.893v0 0zM713.387 386.56h-402.773c-13.653 0-23.893 10.24-23.893 23.893s10.24 23.893 23.893 23.893h406.187c13.653 0 23.893-10.24 23.893-23.893-3.413-13.653-13.653-23.893-27.307-23.893v0 0zM713.387 273.92h-402.773c-13.653 0-23.893 10.24-23.893 23.893s10.24 23.893 23.893 23.893h406.187c13.653 0 23.893-10.24 23.893-23.893s-13.653-23.893-27.307-23.893v0 0z" />
<glyph unicode="&#xe95e;" glyph-name="add2" d="M512-53.76c-17.067 0-30.72 0-47.787 3.413l3.413 34.133c44.373-3.413 88.747-3.413 129.707 6.827l6.827-34.133c-30.72-6.827-61.44-10.24-92.16-10.24zM392.533-40.107c-44.373 10.24-88.747 27.307-129.707 51.2l17.067 30.72c37.547-20.48 78.507-37.547 122.88-47.787l-10.24-34.133zM672.427-26.453l-10.24 30.72c40.96 13.653 81.92 34.133 116.053 58.027l20.48-27.307c-37.547-27.307-81.92-47.787-126.293-61.44zM204.8 52.053c-37.547 27.307-71.68 61.44-98.987 102.4l27.307 20.48c27.307-34.133 58.027-68.267 92.16-95.573l-20.48-27.307zM853.333 79.36l-23.893 27.307c30.72 30.72 61.44 64.853 81.92 102.4l30.72-17.067c-23.893-44.373-54.613-78.507-88.747-112.64zM68.267 212.48c-23.893 40.96-37.547 85.333-47.787 133.12l34.133 6.827c10.24-44.373 23.893-85.333 44.373-122.88l-30.72-17.067zM972.8 253.44l-30.72 13.653c17.067 40.96 27.307 81.92 34.133 126.293l34.133-3.413c-6.827-47.787-17.067-95.573-37.547-136.533zM10.24 413.867c0 10.24 0 20.48 0 34.133 0 37.547 3.413 71.68 10.24 105.813l34.133-6.827c-6.827-30.72-10.24-64.853-10.24-98.987 0-10.24 0-20.48 0-30.72l-34.133-3.413zM979.627 458.24c0 44.373-6.827 88.747-20.48 129.707l34.133 10.24c13.653-44.373 20.48-92.16 23.893-139.947h-37.547zM75.093 611.84l-34.133 10.24c17.067 44.373 37.547 85.333 68.267 122.88l27.307-17.067c-27.307-37.547-47.787-75.093-61.44-116.053zM935.253 649.387c-20.48 40.96-44.373 75.093-71.68 109.227l23.893 23.893c30.72-34.133 58.027-75.093 78.507-116.053l-30.72-17.067zM177.493 775.68l-23.893 23.893c34.133 34.133 71.68 61.44 112.64 85.333l17.067-27.307c-37.547-23.893-71.68-51.2-105.813-81.92zM815.787 802.987c-34.133 27.307-71.68 51.2-109.227 71.68l10.24 30.72c44.373-20.48 81.92-44.373 119.467-75.093l-20.48-27.307zM341.333 884.907l-10.24 30.72c44.373 17.067 88.747 27.307 136.533 30.72l3.413-34.133c-44.373-3.413-88.747-13.653-129.707-27.307zM641.707 898.56c-40.96 13.653-85.333 17.067-129.707 17.067v34.133c47.787 0 95.573-6.827 139.947-20.48l-10.24-30.72zM314.027 461.653h399.36c10.24 0 17.067-6.827 17.067-17.067s-6.827-17.067-17.067-17.067h-399.36c-10.24 0-17.067 6.827-17.067 17.067s6.827 17.067 17.067 17.067zM535.893 645.973v-399.36c0-10.24-6.827-17.067-17.067-17.067s-17.067 6.827-17.067 17.067v0 399.36c0 10.24 6.827 17.067 17.067 17.067s17.067-6.827 17.067-17.067z" />
<glyph unicode="&#xe95f;" d="M105.813 700.587h849.92v-604.16h-849.92v604.16z" />
<glyph unicode="&#xe960;" d="M242.347 700.587h68.267v-98.987h-68.267v98.987zM242.347 499.2h68.267v-98.987h-68.267v98.987zM242.347 297.813h68.267v-98.987h-68.267v98.987z" />
<glyph unicode="&#xe961;" d="M481.28 465.067h269.653v-68.267h-269.653v68.267zM481.28 601.6h269.653v-68.267h-269.653v68.267zM481.28 331.947h269.653v-68.267h-269.653v68.267z" />
<glyph unicode="&#xe962;" d="M1024 96.427h-1020.587v81.92l17.067 3.413c30.72 6.827 51.2 34.133 47.787 64.853 3.413 30.72-20.48 58.027-47.787 64.853h-17.067v85.333l17.067 3.413c30.72 6.827 51.2 34.133 47.787 64.853 3.413 30.72-20.48 58.027-47.787 64.853l-17.067 3.413v85.333l17.067 3.413c30.72 6.827 51.2 34.133 47.787 64.853 3.413 30.72-20.48 58.027-47.787 64.853h-17.067v51.2h1020.587v-47.787l-13.653-6.827c-17.067-6.827-54.613-34.133-54.613-61.44s34.133-58.027 54.613-64.853l13.653-6.827v-78.507l-13.653-6.827c-17.067-6.827-54.613-37.547-54.613-64.853s34.133-58.027 54.613-64.853l13.653-6.827v-78.507l-13.653-3.413c-17.067-6.827-54.613-37.547-54.613-64.853s34.133-58.027 54.613-64.853l13.653-6.827v-78.507zM47.787 140.8h931.84v6.827c-30.72 17.067-64.853 54.613-64.853 98.987s37.547 81.92 64.853 98.987v23.893c-30.72 17.067-64.853 54.613-64.853 98.987s37.547 81.92 64.853 98.987v23.893c-37.547 20.48-61.44 58.027-64.853 102.4 0 23.893 10.24 51.2 27.307 68.267h-846.507c13.653-20.48 20.48-44.373 20.48-68.267 3.413-44.373-23.893-88.747-64.853-105.813v-17.067c40.96-17.067 68.267-58.027 64.853-102.4 3.413-44.373-23.893-85.333-64.853-102.4v-20.48c40.96-17.067 68.267-58.027 64.853-102.4 0-44.373-27.307-85.333-68.267-102.4 0 3.413 0 0 0 0z" />
<glyph unicode="&#xe963;" glyph-name="warn" d="M512 161.28c-30.72 0-51.2 23.893-51.2 51.2 0 30.72 23.893 51.2 51.2 51.2 30.72 0 51.2-23.893 51.2-51.2 0-30.72-20.48-51.2-51.2-51.2v0 0zM512 335.36c-23.893 0-44.373 20.48-44.373 44.373v327.68c0 23.893 20.48 44.373 44.373 44.373s44.373-20.48 44.373-44.373v-327.68c0-27.307-20.48-44.373-44.373-44.373v0zM512 949.76c-276.48 0-501.76-225.28-501.76-501.76s225.28-501.76 501.76-501.76c276.48 0 501.76 225.28 501.76 501.76s-225.28 501.76-501.76 501.76zM512 14.507c-238.933 0-433.493 194.56-433.493 433.493s194.56 436.907 433.493 436.907c238.933 0 436.907-197.973 436.907-436.907s-197.973-433.493-436.907-433.493z" />
<glyph unicode="&#xe964;" glyph-name="info" horiz-adv-x="1174" d="M337.832 200.299l-59.667-216.397s2.521-84.038 92.862-31.094l247.071 247.071h-280.266zM583.642 131.808h483.217c0.866-0.026 1.885-0.040 2.907-0.040 53.439 0 97.557 39.903 104.187 91.538l0.055 0.524v648.351c-8.745 50.17-51.966 87.825-103.981 87.825-0.375 0-0.749-0.002-1.123-0.006h-966.377c-55.629-2.29-99.969-47.51-100.844-103.282l-0.001-0.084v-625.241c3.422-55.24 49.059-98.745 104.858-98.745 0.067 0 0.133 0 0.2 0h214.286zM247.491 601.999h61.348c34.345 0 62.188-27.842 62.188-62.188v0 0c0.014-0.501 0.023-1.090 0.023-1.681 0-34.345-27.842-62.188-62.188-62.188-0.008 0-0.016 0-0.024 0h-61.346c-34.345 0-62.188 27.842-62.188 62.188v0 0c-0.014 0.501-0.023 1.090-0.023 1.681 0 34.345 27.842 62.188 62.188 62.188 0.008 0 0.016 0 0.024 0h-0.001zM556.75 601.999h60.087c34.345 0 62.188-27.842 62.188-62.188v0 0c0.014-0.501 0.023-1.091 0.023-1.682 0-34.206-27.616-61.961-61.769-62.187h-60.528c-34.345 0-62.188 27.842-62.188 62.188v0 0c-0.014 0.501-0.023 1.090-0.023 1.681 0 34.345 27.842 62.188 62.188 62.188 0.008 0 0.016 0 0.024 0h-0.001zM864.748 601.999h61.348c34.345 0 62.188-27.842 62.188-62.188v0c0.014-0.501 0.023-1.090 0.023-1.681 0-34.345-27.842-62.188-62.188-62.188-0.008 0-0.016 0-0.024 0h-60.926c-34.345 0-62.188 27.842-62.188 62.188v0 0c-0.014 0.501-0.023 1.090-0.023 1.681 0 34.345 27.842 62.188 62.188 62.188 0.008 0 0.016 0 0.024 0h-0.001z" />
<glyph unicode="&#xe965;" glyph-name="null-content" d="M327.68 526.507c40.96 0 75.093 34.133 75.093 75.093s-34.133 75.093-75.093 75.093c-40.96 0-75.093-34.133-75.093-75.093 0 0 0 0 0 0-3.413-40.96 30.72-75.093 75.093-75.093zM669.013 574.293l-225.28-317.44-116.053 163.84-191.147-273.067h761.173l-228.693 426.667zM972.8 888.32h-911.36c-20.48 0-37.547-17.067-37.547-37.547 0 0 0 0 0 0v-798.72c0-20.48 17.067-37.547 37.547-37.547 0 0 0 0 0 0h911.36c20.48 0 37.547 17.067 37.547 37.547 0 0 0 0 0 0v798.72c0 20.48-17.067 37.547-37.547 37.547 0 0 0 0 0 0zM965.973 58.88h-894.293v788.48h897.707v-788.48h-3.413z" />
<glyph unicode="&#xe966;" d="M836.267 198.827c51.2-6.827 98.987-17.067 146.773-34.133 17.067-3.413 30.72-13.653 37.547-30.72 3.413-10.24-3.413-23.893-13.653-27.307-23.893-13.653-51.2-23.893-78.507-30.72-64.853-13.653-129.707-23.893-194.56-27.307-122.88-10.24-249.173-10.24-372.053-3.413-78.507 3.413-153.6 13.653-228.693 23.893-37.547 6.827-71.68 17.067-105.813 30.72-13.653 3.413-23.893 13.653-27.307 27.307 0 13.653 10.24 23.893 20.48 27.307 27.307 13.653 54.613 23.893 85.333 27.307 0-23.893 0-47.787 3.413-68.267 6.827-23.893 27.307-37.547 51.2-37.547 208.213-3.413 413.013 0 621.227 0 23.893 0 47.787 17.067 51.2 40.96 6.827 27.307 0 54.613 3.413 81.92z" />
<glyph unicode="&#xe967;" d="M358.4 400.213c71.68 61.44 174.080 64.853 249.173 6.827 6.827-3.413 10.24-10.24 10.24-20.48-20.48 6.827-37.547 27.307-58.027 34.133-64.853 27.307-139.947 17.067-191.147-30.72h-10.24c-3.413 3.413 0 6.827 0 10.24zM897.707 843.947c-13.653 10.24-30.72 17.067-51.2 13.653-194.56 0-389.12 0-583.68 0-20.48 3.413-44.373 0-61.44-10.24-13.653-6.827-23.893-23.893-23.893-40.96 0-37.547 0-75.093 0-116.053h13.653c0 37.547 0 75.093 0 109.227 0 13.653 3.413 23.893 10.24 30.72 10.24 6.827 20.48 10.24 34.133 10.24 194.56 0 392.533 0 587.093 0 17.067 0 34.133 0 51.2 0 10.24-3.413 17.067-10.24 23.893-17.067-13.653 6.827-27.307 10.24-40.96 6.827-20.48-3.413-37.547-23.893-37.547-44.373 0-211.627 0-419.84 0-631.467 3.413-17.067-3.413-30.72-17.067-40.96s-34.133-3.413-44.373 10.24c-3.413 3.413-3.413 6.827-3.413 13.653-3.413 34.133 0 68.267-3.413 98.987-187.733 0-375.467 0-563.2 0 0 17.067 0 34.133 0 51.2 0 119.467 0 235.52 0 354.987h-10.24c0-136.533 0-273.067 0-409.6-23.893 0-47.787 0-71.68 0 0-20.48 0-40.96 0-61.44 0-23.893 0-44.373 3.413-68.267 6.827-17.067 27.307-30.72 51.2-30.72 208.213 0 413.013 0 621.227 0 23.893-3.413 47.787 13.653 51.2 37.547 3.413 27.307 0 54.613 0 81.92 0 170.667 0 337.92 0 508.587 27.307 0 51.2 0 78.507 0 0 30.72 0 61.44 0 92.16 3.413 20.48 0 37.547-13.653 51.2v0zM791.893 86.187c-17.067 0-34.133 0-51.2 0-187.733 0-375.467 0-559.787 0-17.067-3.413-34.133 0-47.787 10.24-10.24 10.24-13.653 20.48-13.653 34.133 0 30.72 0 64.853 0 95.573 208.213 0 413.013 0 621.227 0 0-30.72 0-58.027 0-88.747 0-20.48 17.067-37.547 34.133-40.96 13.653-3.413 30.72 0 40.96 6.827-3.413-6.827-13.653-13.653-23.893-17.067zM901.12 714.24h-68.267c0 23.893 0 51.2 0 75.093 0 17.067 17.067 30.72 34.133 30.72s27.307-13.653 30.72-30.72c3.413-23.893 0-51.2 3.413-75.093zM228.693 669.867v0l44.373-6.827 37.547 23.893 44.373-10.24 37.547 23.893 27.307-3.413-23.893 10.24-37.547-20.48-44.373 17.067-44.373-17.067-40.96 17.067-51.2-17.067v10.24l47.787 17.067 44.373-17.067 44.373 17.067 44.373-17.067 44.373 17.067 64.853-30.72 3.413-3.413h3.413l-3.413-6.827h-6.827l-64.853 13.653-37.547-20.48-47.787 6.827-37.547-20.48-47.787 6.827-40.96-20.48-10.24 6.827 51.2 23.893zM638.293 560.64l-13.653 13.653 13.653 13.653c3.413 3.413 3.413 6.827 0 10.24v0c-3.413 3.413-6.827 3.413-10.24 0l-13.653-13.653-13.653 13.653c-3.413 3.413-6.827 3.413-10.24 0s-3.413-6.827 0-10.24v0l13.653-13.653-13.653-13.653c-3.413-3.413-3.413-6.827 0-10.24v0c3.413-3.413 6.827-3.413 10.24 0l13.653 13.653 13.653-13.653c3.413-3.413 6.827-3.413 10.24 0s3.413 6.827 0 10.24v0 0 0zM385.707 560.64l-13.653 13.653 13.653 13.653c3.413 3.413 3.413 6.827 0 10.24v0c-3.413 3.413-6.827 3.413-10.24 0l-13.653-13.653-13.653 13.653c-3.413 3.413-6.827 3.413-10.24 0s-3.413-6.827 0-10.24v0l13.653-13.653-13.653-13.653c-3.413-3.413-3.413-6.827 0-10.24v0c3.413-3.413 6.827-3.413 10.24 0l13.653 13.653 13.653-13.653c3.413-3.413 6.827-3.413 10.24 0s3.413 6.827 0 10.24v0 0 0zM105.813 553.813l-6.827 6.827 6.827 6.827v3.413c0 0-3.413 0-6.827 0l-6.827-6.827-6.827 6.827c0 0-3.413 0-6.827 0v-3.413l6.827-6.827-6.827-6.827v-3.413c0 0 3.413 0 6.827 0v0l6.827 6.827 6.827-6.827c0 0 3.413 0 6.827 0 0 0 0 0 0 3.413v0zM986.453 273.92l-17.067 17.067 17.067 17.067c3.413 3.413 3.413 6.827 0 10.24v0c-3.413 3.413-6.827 3.413-10.24 0l-17.067-17.067-17.067 17.067c-3.413 3.413-6.827 3.413-10.24 0s-3.413-6.827 0-10.24v0l17.067-17.067-17.067-17.067c-3.413-3.413-3.413-6.827 0-10.24v0c3.413-3.413 6.827-3.413 10.24 0l17.067 17.067 17.067-17.067c3.413-3.413 6.827-3.413 10.24 0 3.413 0 3.413 6.827 0 10.24v0 0z" />
<glyph unicode="&#xe968;" d="M512 38.4c51.2 0 92.16 37.547 92.16 88.747s-37.547 92.16-88.747 92.16-92.16-37.547-92.16-88.747c0 0 0 0 0 0 0-51.2 40.96-92.16 88.747-92.16z" />
<glyph unicode="&#xe969;" d="M720.213 256.853c-6.827 0-13.653 3.413-17.067 10.24-85.333 105.813-242.347 122.88-348.16 37.547-13.653-10.24-23.893-20.48-34.133-34.133-6.827-10.24-23.893-10.24-34.133-3.413 0 0 0 0 0 0-10.24 10.24-10.24 23.893-3.413 34.133 105.813 122.88 290.133 139.947 416.427 34.133 13.653-13.653 27.307-23.893 37.547-40.96 6.827-10.24 6.827-27.307-3.413-34.133-3.413 0-6.827-3.413-13.653-3.413z" />
<glyph unicode="&#xe96a;" d="M863.573 430.933c6.827 0 10.24 3.413 17.067 6.827 10.24 10.24 10.24 23.893 3.413 34.133-180.907 204.8-494.933 225.28-699.733 47.787-13.653-13.653-27.307-27.307-40.96-40.96-10.24-10.24-6.827-23.893 0-34.133 10.24-10.24 23.893-10.24 34.133 0 0 0 0 0 0 0 167.253 184.32 450.56 197.973 634.88 30.72 13.653-10.24 23.893-23.893 37.547-37.547 0-6.827 6.827-6.827 13.653-6.827z" />
<glyph unicode="&#xe96b;" d="M1000.107 591.36c6.827 0 13.653 3.413 17.067 6.827 10.24 10.24 10.24 23.893 0 34.133-129.707 143.36-314.027 225.28-508.587 225.28-191.147 0-372.053-78.507-501.76-218.453-10.24-10.24-10.24-23.893 0-34.133s23.893-10.24 34.133 0c0 0 0 0 0 0 119.467 129.707 290.133 204.8 467.627 204.8 180.907 0 351.573-75.093 471.040-208.213 6.827-6.827 13.653-10.24 20.48-10.24z" />
<glyph unicode="&#xe96c;" glyph-name="image" d="M327.68 526.507c40.96 0 75.093 34.133 75.093 75.093s-34.133 75.093-75.093 75.093-75.093-34.133-75.093-75.093v0c-3.413-40.96 30.72-75.093 75.093-75.093zM669.013 574.293l-225.28-317.44-116.053 163.84-191.147-273.067h761.173l-228.693 426.667zM972.8 888.32h-911.36c-20.48 0-37.547-17.067-37.547-37.547v0-798.72c0-20.48 17.067-37.547 37.547-37.547v0h911.36c20.48 0 37.547 17.067 37.547 37.547v0 798.72c0 20.48-17.067 37.547-37.547 37.547v0zM965.973 58.88h-894.293v788.48h897.707v-788.48h-3.413z" />
<glyph unicode="&#xe96d;" glyph-name="readed" d="M139.947 171.52l40.96 174.080 129.707-133.12-170.667-40.96zM348.16 246.613l-129.707 133.12 389.12 392.533 129.707-133.12c0 0-389.12-392.533-389.12-392.533zM771.413 673.28l-129.707 133.12 98.987 98.987c17.067 17.067 47.787 17.067 64.853 0l64.853-68.267c17.067-17.067 17.067-47.787 0-64.853l-98.987-98.987zM959.147-19.627h-897.707c-23.893 0-44.373 23.893-44.373 47.787s17.067 44.373 44.373 44.373h897.707c23.893 0 44.373-20.48 44.373-44.373s-17.067-47.787-44.373-47.787z" />
<glyph unicode="&#xe96e;" glyph-name="profile" d="M864 960h-768c-52.8 0-96-43.2-96-96v-832c0-52.8 43.2-96 96-96h768c52.8 0 96 43.2 96 96v832c0 52.8-43.2 96-96 96zM832 64h-704v768h704v-768zM256 384h448v-64h-448zM256 256h448v-64h-448zM320 672c0 53.019 42.981 96 96 96s96-42.981 96-96c0-53.019-42.981-96-96-96s-96 42.981-96 96zM480 576h-128c-52.8 0-96-28.8-96-64v-64h320v64c0 35.2-43.2 64-96 64z" />
<glyph unicode="&#xe96f;" glyph-name="edit" d="M139.947 171.52l40.96 174.080 129.707-133.12-170.667-40.96zM348.16 246.613l-129.707 133.12 389.12 392.533 129.707-133.12c0 0-389.12-392.533-389.12-392.533zM771.413 673.28l-129.707 133.12 98.987 98.987c17.067 17.067 47.787 17.067 64.853 0l64.853-68.267c17.067-17.067 17.067-47.787 0-64.853l-98.987-98.987zM959.147-19.627h-897.707c-23.893 0-44.373 23.893-44.373 47.787s17.067 44.373 44.373 44.373h897.707c23.893 0 44.373-20.48 44.373-44.373s-17.067-47.787-44.373-47.787z" />
<glyph unicode="&#xe970;" glyph-name="add" d="M314.027 461.653h399.36c10.24 0 17.067-6.827 17.067-17.067s-6.827-17.067-17.067-17.067h-399.36c-10.24 0-17.067 6.827-17.067 17.067s6.827 17.067 17.067 17.067zM535.893 645.973v-399.36c0-10.24-6.827-17.067-17.067-17.067s-17.067 6.827-17.067 17.067v0 399.36c0 10.24 6.827 17.067 17.067 17.067s17.067-6.827 17.067-17.067z" />
<glyph unicode="&#xe971;" glyph-name="loader" d="M512 896c-23.467 0-42.667-19.2-42.667-42.667v-170.667c0-23.467 19.2-42.667 42.667-42.667s42.667 19.2 42.667 42.667v170.667c0 23.467-19.2 42.667-42.667 42.667zM512 213.334c-23.467 0-42.667-19.2-42.667-42.667v-170.667c0-23.467 19.2-42.667 42.667-42.667s42.667 19.2 42.667 42.667v170.667c0 23.467-19.2 42.667-42.667 42.667zM240.533 758.4c-16.533 16.533-43.733 16.533-60.267 0s-16.533-43.733 0-60.267l120.8-120.8c8.267-8.267 19.2-12.533 30.133-12.533s21.867 4.267 30.133 12.533c16.533 16.533 16.533 43.733 0 60.267l-120.8 120.8zM723.2 276c-16.533 16.533-43.733 16.533-60.267 0s-16.533-43.733 0-60.267l120.8-120.8c8.267-8.267 19.2-12.533 30.133-12.533s21.867 4.267 30.133 12.533c16.533 16.533 16.533 43.733 0 60.267l-120.8 120.8zM298.667 426.667c0 23.467-19.2 42.667-42.667 42.667h-170.667c-23.467 0-42.667-19.2-42.667-42.667s19.2-42.667 42.667-42.667h170.667c23.467 0 42.667 19.2 42.667 42.667zM938.667 469.334h-170.667c-23.467 0-42.667-19.2-42.667-42.667s19.2-42.667 42.667-42.667h170.667c23.467 0 42.667 19.2 42.667 42.667s-19.2 42.667-42.667 42.667zM300.8 276l-120.8-120.8c-16.533-16.533-16.533-43.733 0-60.267 8.267-8.267 19.2-12.533 30.133-12.533s21.867 4.267 30.133 12.533l120.8 120.8c16.533 16.533 16.533 43.733 0 60.267s-43.467 16.533-60.267 0zM692.8 564.8c10.933 0 21.867 4.267 30.133 12.533l120.8 120.8c16.533 16.533 16.533 43.733 0 60.267s-43.733 16.533-60.267 0l-120.8-120.8c-16.533-16.533-16.533-43.733 0-60.267 8.533-8.267 19.2-12.533 30.133-12.533z" />
<glyph unicode="&#xe97f;" glyph-name="spinner6" d="M384 832c0 70.692 57.308 128 128 128s128-57.308 128-128c0-70.692-57.308-128-128-128s-128 57.308-128 128zM790.994 448c0 0 0 0 0 0 0 57.993 47.013 105.006 105.006 105.006s105.006-47.013 105.006-105.006c0 0 0 0 0 0 0-57.993-47.013-105.006-105.006-105.006s-105.006 47.013-105.006 105.006zM688.424 176.47c0 52.526 42.58 95.106 95.106 95.106s95.106-42.58 95.106-95.106c0-52.526-42.58-95.106-95.106-95.106s-95.106 42.58-95.106 95.106zM425.862 64c0 47.573 38.565 86.138 86.138 86.138s86.138-38.565 86.138-86.138c0-47.573-38.565-86.138-86.138-86.138s-86.138 38.565-86.138 86.138zM162.454 176.47c0 43.088 34.93 78.018 78.018 78.018s78.018-34.93 78.018-78.018c0-43.088-34.93-78.018-78.018-78.018s-78.018 34.93-78.018 78.018zM57.338 448c0 39.026 31.636 70.662 70.662 70.662s70.662-31.636 70.662-70.662c0-39.026-31.636-70.662-70.662-70.662s-70.662 31.636-70.662 70.662zM176.472 719.528c0 0 0 0 0 0 0 35.346 28.654 64 64 64s64-28.654 64-64c0 0 0 0 0 0 0-35.346-28.654-64-64-64s-64 28.654-64 64zM899.464 719.528c0-64.024-51.906-115.934-115.936-115.934-64.024 0-115.936 51.91-115.936 115.934 0 64.032 51.912 115.934 115.936 115.934 64.030 0 115.936-51.902 115.936-115.934z" />
<glyph unicode="&#xe9ac;" glyph-name="bin" d="M128 640v-640c0-35.2 28.8-64 64-64h576c35.2 0 64 28.8 64 64v640h-704zM320 64h-64v448h64v-448zM448 64h-64v448h64v-448zM576 64h-64v448h64v-448zM704 64h-64v448h64v-448zM848 832h-208v80c0 26.4-21.6 48-48 48h-224c-26.4 0-48-21.6-48-48v-80h-208c-26.4 0-48-21.6-48-48v-80h832v80c0 26.4-21.6 48-48 48zM576 832h-192v63.198h192v-63.198z" />
</font>
</defs>
</svg>
